<?xml version="1.0" encoding="UTF-8"?>
<svg id="Layer_2" data-name="Layer 2" xmlns="http://www.w3.org/2000/svg" viewBox="0 0 164.4 164.4">
  <defs>
    <style>
      .cls-1 {
        fill: #f58b27;
      }

      .cls-2 {
        fill: #fff;
      }
    </style>
  </defs>
  <g id="Calque_1" data-name="Calque 1">
    <g>
      <rect class="cls-1" width="164.4" height="164.4" rx="40.59" ry="40.59"/>
      <path class="cls-2" d="M125.88,87.11c0-.25,0-.51,0-.76-.03-5.31-.05-10.64.03-15.94.07-4.1-.71-8.27-2.68-11.9-.14-.25-.28-.5-.42-.75-.45-.75-.95-1.48-1.5-2.18-.85-1.07-1.83-2.08-2.93-3.02-1.08-.92-2.21-1.74-3.39-2.42-3.53-2.05-7.7-2.85-11.74-2.85h-.02c-2.96,0-5.91,0-8.87,0-2.96,0-5.91,0-8.87,0-2.96,0-5.91,0-8.87,0-2.96,0-5.91,0-8.87,0-2.96,0-5.91,0-8.87,0-1.46,0-2.93-.02-4.39-.02-.73,0-1.46,0-2.2.02-.12,0-.25,0-.38,0h-.01c-.17-.02-.35-.03-.53-.03-1.05,0-2.02.35-2.79.94-.08.06-.15.12-.22.18-.08.07-.16.14-.23.21-.02.01-.03.02-.04.04-.05.05-.1.11-.16.16-.05.05-.09.1-.14.16-.04.05-.08.1-.12.15-.6.75-.95,1.69-.95,2.72v.1s0,.08,0,.12c.06,2.52,2.13,4.55,4.66,4.55h53.87c.97,0,1.94.14,2.87.42.36.11.71.22,1.05.36,3.84,1.58,6.61,5.02,7.4,9.1.01.07.03.15.04.22.44,2.5.25,5.09.25,7.62v7.94c0,3.3,0,6.6,0,9.9-.11,1-.07,2-.33,3.01-.65,2.47-2.05,5.1-4.02,6.76-2.32,1.97-5.62,2.97-8.63,2.97-4.98,0-9.96-.01-14.94-.02-4.79,0-9.58,0-14.37,0h-.02c-.86,0-1.66.24-2.34.66l-.48.34-13.56,9.48c-.17.13-.34.26-.51.38l.02-.02s-.09.06-.14.08c-.14.06-.28.1-.44.11-.65.03-1.18-.54-1.18-1.18v-.35s0-.07,0-.09c0-.31,0-.61,0-.92,0-.7,0-1.39,0-2.09-.01-5.2,0-10.4,0-15.6v-.96c0-2.54,0-5.08-.01-7.62,0-.53,0-1.05,0-1.58,0-1.58,0-3.16.03-4.74,0-.29.03-.59.07-.88.2-1.26.46-2.4,1.16-3.49.65-1,1.5-1.87,2.5-2.53,3.73-2.46,8.77-1.52,11.25,2.22.78,1.18,1.25,2.55,1.34,3.96v12.82c.23,2.73,2.84,4.79,5.74,4.1,2.13-.51,3.61-2.52,3.49-4.67v-12.46c.02-.27.06-.55.12-.82.04-.18.08-.37.14-.55,0-.02.02-.04.03-.07.95-3.44,4.1-5.96,7.85-5.96,4.31,0,7.83,3.34,8.13,7.57,0,0,0,0,0,0,0,.02,0,.05.01.07.02.19.05.38.06.56.02.19.02.37.01.56-.16,3.63-.04,7.25.01,10.88-.01.12-.02.25-.02.37,0,2.48,2.01,4.48,4.48,4.48.93,0,1.79-.28,2.51-.77.61-.37,1.09-.9,1.43-1.57.35-.64.54-1.37.54-2.14,0,0,0-.02,0-.03,0-.14.02-.27.02-.41.05-3.82.04-7.64.03-11.46v-.59c0-.12,0-.25-.02-.37,0-.03,0-.07-.01-.1-.04-.34-.12-.68-.16-1.02-.22-2.08-.8-3.95-1.71-5.63-1.17-2.15-2.87-3.98-5-5.51-4.45-3.2-9.43-3.96-14.76-2.66-2.87.7-5.36,2.02-7.46,4.1-.05.04-.11.07-.16.1-.27.29-.53.58-.78.89-1.07-1.29-2.32-2.42-3.72-3.35,0,0-.01-.01-.02-.01-.51-.29-1.02-.56-1.55-.79-.18-.08-.35-.15-.53-.22-.36-.14-.72-.27-1.08-.39-.91-.29-1.86-.51-2.83-.64-.78-.11-1.57-.17-2.39-.18-.2,0-.41,0-.61,0-.41,0-.82.02-1.23.05-.41.03-.81.07-1.21.12-.2.03-.4.06-.59.09-.59.1-1.17.23-1.75.38-1.15.32-2.25.76-3.32,1.35-.36.2-.71.41-1.06.64-.42.28-.83.56-1.23.85-.6.44-1.18.89-1.72,1.39-.55.5-1.06,1.03-1.53,1.62-.29.37-.57.75-.83,1.14-.13.2-.25.4-.37.6-.36.61-.68,1.24-.96,1.89-.94,2.16-1.44,4.53-1.51,6.88-.01.38-.02.77,0,1.15.03,1.04.06,2.07.06,3.11v9.82c0,4.05,0,8.09,0,12.14,0,5.81-.01,11.63.02,17.44,0,.04,0,.07,0,.11,0,.09,0,.17,0,.26v.02c.14,2.63,2.33,4.73,5,4.73.81,0,1.59-.19,2.27-.54.31-.19.63-.4.95-.63.3-.22.6-.44.88-.66l16.34-11.91,2.4-1.7c.71-.36,1.52-.56,2.38-.56.1,0,.2,0,.3,0,.85-.05,1.71-.03,2.58-.02,8.27.04,16.54.01,24.81.02,2.13,0,4.42-.49,6.46-1.13,1.7-.53,3.32-1.3,4.8-2.28.74-.49,1.45-1.03,2.11-1.62.67-.59,1.38-1.15,1.98-1.82.13-.14.25-.29.37-.44.19-.23.38-.46.56-.7,2.23-2.78,3.82-5.88,4.48-9.4.59-3.13.44-6.34.42-9.5ZM81.45,92.23c0-.08-.01-.15-.02-.23,0,.08.02.15.02.23Z"/>
    </g>
  </g>
</svg>