<?xml version="1.0" encoding="UTF-8"?>
<svg id="Layer_2" data-name="Layer 2" xmlns="http://www.w3.org/2000/svg" viewBox="0 0 117.52 122.68">
  <defs>
    <style>
      .cls-1 {
        fill: #f58824;
      }
    </style>
  </defs>
  <g id="Calque_1" data-name="Calque 1">
    <path fill="#f58b27" d="M117.47,59.07c0-.37,0-.75,0-1.12-.05-7.88-.07-15.78.05-23.65.1-6.08-1.05-12.27-3.97-17.65-.2-.37-.41-.74-.63-1.11-.67-1.12-1.41-2.2-2.23-3.24-1.26-1.59-2.71-3.08-4.34-4.48-1.6-1.37-3.28-2.57-5.03-3.59-5.24-3.04-11.42-4.22-17.42-4.22h-.04c-4.39,0-8.77,0-13.16,0-4.39,0-8.77,0-13.16,0-4.38,0-8.77,0-13.16.01-4.38,0-8.77,0-13.16,0-4.38,0-8.77,0-13.16.01-2.17,0-4.35-.03-6.52-.04-1.08,0-2.17,0-3.26.03-.19,0-.37,0-.56,0h-.02c-.26-.03-.52-.05-.79-.05C5.36,0,3.93.52,2.77,1.4c-.12.09-.23.18-.33.26-.12.1-.24.2-.35.31-.02.02-.05.04-.06.06-.08.08-.15.16-.23.24-.07.07-.14.15-.2.23-.06.07-.12.15-.18.23C.53,3.85,0,5.25,0,6.77v.15C0,6.98,0,7.04,0,7.1c.09,3.74,3.15,6.75,6.91,6.75h79.9c1.44,0,2.88.21,4.26.63.53.16,1.05.33,1.56.54,5.7,2.35,9.81,7.45,10.98,13.5.02.11.04.22.06.33.66,3.71.37,7.56.37,11.31v11.78c0,4.89,0,9.79,0,14.68-.17,1.49-.1,2.97-.49,4.46-.97,3.66-3.04,7.56-5.96,10.03-3.44,2.92-8.34,4.41-12.81,4.41-7.38,0-14.77-.02-22.16-.03-7.11,0-14.21,0-21.32,0h-.03c-1.27,0-2.46.36-3.48.98l-.71.5-20.12,14.06c-.25.19-.51.38-.76.56l.04-.03c-.06.05-.14.09-.21.13-.2.1-.42.15-.65.16-.96.04-1.75-.8-1.75-1.76v-.52c0-.05,0-.1,0-.14,0-.45,0-.91,0-1.37,0-1.03,0-2.06,0-3.1-.02-7.71,0-15.42,0-23.13v-1.42c0-3.76-.01-7.53-.02-11.3,0-.78,0-1.56,0-2.35,0-2.34.01-4.69.05-7.04,0-.44.04-.87.11-1.31.3-1.87.68-3.56,1.72-5.17.96-1.49,2.23-2.78,3.71-3.76,5.53-3.65,13.01-2.25,16.69,3.29,1.16,1.75,1.85,3.79,1.98,5.88v19.02c.34,4.05,4.21,7.11,8.52,6.08,3.16-.75,5.35-3.73,5.17-6.93v-18.48c.04-.41.09-.81.18-1.21.06-.27.12-.54.2-.81.01-.03.03-.06.05-.11,1.42-5.1,6.09-8.84,11.64-8.84,6.39,0,11.62,4.96,12.06,11.24,0,0,0,0,0,.01,0,.04.01.07.02.11.04.28.07.56.09.84.02.28.03.56.02.83-.24,5.38-.06,10.76.02,16.14-.01.18-.03.36-.03.55,0,3.67,2.98,6.65,6.65,6.65,1.38,0,2.66-.42,3.73-1.14.9-.55,1.62-1.33,2.12-2.33.51-.94.81-2.03.81-3.18,0-.01,0-.02,0-.04.01-.2.03-.4.03-.61.07-5.67.06-11.34.05-17v-.87c0-.19,0-.37-.03-.56,0-.05,0-.1-.02-.15-.06-.5-.17-1.01-.24-1.52-.32-3.09-1.19-5.87-2.54-8.35-1.73-3.19-4.26-5.9-7.41-8.17-6.61-4.75-13.99-5.87-21.9-3.94-4.26,1.04-7.95,3-11.06,6.09-.08.06-.16.1-.23.14-.4.43-.79.87-1.16,1.31-1.58-1.91-3.44-3.59-5.51-4.97,0,0-.02-.02-.03-.02-.75-.44-1.52-.83-2.3-1.17-.26-.12-.52-.23-.79-.33-.53-.21-1.06-.41-1.61-.58-1.36-.43-2.75-.75-4.2-.95-1.15-.16-2.34-.25-3.54-.27-.3,0-.61,0-.91,0-.61,0-1.22.03-1.82.07-.6.04-1.2.1-1.79.18-.3.04-.59.08-.88.13-.88.15-1.74.33-2.59.57-1.7.47-3.34,1.13-4.93,2-.53.29-1.05.6-1.56.94-.62.41-1.23.83-1.82,1.26-.89.65-1.75,1.32-2.55,2.06-.81.74-1.57,1.53-2.27,2.41-.44.55-.85,1.11-1.23,1.69-.19.29-.38.59-.56.89-.54.9-1.01,1.83-1.43,2.8C.87,43.33.13,46.84.02,50.32c-.02.57-.02,1.14-.01,1.71.04,1.54.09,3.08.09,4.61v14.56c0,6,0,12,.01,18,0,8.62-.02,17.25.02,25.87,0,.06,0,.11,0,.17,0,.13,0,.25,0,.38v.03c.21,3.91,3.45,7.01,7.42,7.01,1.21,0,2.35-.29,3.36-.81.46-.28.94-.6,1.41-.94.45-.32.89-.65,1.31-.98l24.24-17.67,3.56-2.53c1.06-.53,2.26-.82,3.53-.82.15,0,.3,0,.45.01,1.25-.08,2.54-.04,3.82-.04,12.26.06,24.53.02,36.8.02,3.17,0,6.56-.73,9.58-1.67,2.52-.78,4.92-1.93,7.12-3.38,1.1-.73,2.15-1.53,3.13-2.4.99-.88,2.05-1.71,2.94-2.7.19-.21.37-.43.55-.65.28-.34.56-.69.84-1.03,3.31-4.12,5.67-8.72,6.65-13.95.87-4.64.65-9.4.62-14.09ZM51.56,66.66c0-.11-.02-.23-.03-.34.01.11.03.22.03.34Z"/>
  </g>
</svg>