<?xml version="1.0" encoding="UTF-8"?>
<svg id="Layer_2" data-name="Layer 2" xmlns="http://www.w3.org/2000/svg" xmlns:xlink="http://www.w3.org/1999/xlink" viewBox="0 0 1920 1080">
  <defs>
    <style>
      .cls-1, .cls-2 {
        fill: none;
      }

      .cls-3 {
        mask: url(#mask);
      }

      .cls-4 {
        fill: url(#linear-gradient-8);
      }

      .cls-5 {
        fill: url(#linear-gradient-7);
      }

      .cls-6 {
        fill: url(#linear-gradient-5);
      }

      .cls-7 {
        fill: url(#linear-gradient-6);
      }

      .cls-8 {
        fill: url(#linear-gradient-9);
      }

      .cls-9 {
        fill: url(#linear-gradient-4);
      }

      .cls-10 {
        fill: url(#linear-gradient-3);
      }

      .cls-11 {
        fill: url(#linear-gradient-2);
      }

      .cls-12 {
        fill: url(#linear-gradient);
      }

      .cls-13 {
        mask: url(#mask-2);
      }

      .cls-14 {
        mask: url(#mask-3);
      }

      .cls-15 {
        mask: url(#mask-4);
      }

      .cls-16 {
        mask: url(#mask-5);
      }

      .cls-17 {
        mask: url(#mask-7);
      }

      .cls-18 {
        mask: url(#mask-6);
      }

      .cls-19 {
        mask: url(#mask-1);
      }

      .cls-20 {
        mask: url(#mask-9);
      }

      .cls-21 {
        mask: url(#mask-8);
      }

      .cls-22 {
        clip-path: url(#clippath-17);
      }

      .cls-23 {
        clip-path: url(#clippath-19);
      }

      .cls-24 {
        clip-path: url(#clippath-11);
      }

      .cls-25 {
        clip-path: url(#clippath-16);
      }

      .cls-26 {
        clip-path: url(#clippath-18);
      }

      .cls-27 {
        clip-path: url(#clippath-10);
      }

      .cls-28 {
        clip-path: url(#clippath-15);
      }

      .cls-29 {
        clip-path: url(#clippath-13);
      }

      .cls-30 {
        clip-path: url(#clippath-14);
      }

      .cls-31 {
        clip-path: url(#clippath-12);
      }

      .cls-32 {
        clip-path: url(#clippath-20);
      }

      .cls-33 {
        clip-path: url(#clippath-21);
      }

      .cls-34 {
        clip-path: url(#clippath-22);
      }

      .cls-35 {
        clip-path: url(#clippath-23);
      }

      .cls-36 {
        clip-path: url(#clippath-24);
      }

      .cls-37 {
        clip-path: url(#clippath-1);
      }

      .cls-38 {
        clip-path: url(#clippath-3);
      }

      .cls-39 {
        clip-path: url(#clippath-4);
      }

      .cls-40 {
        clip-path: url(#clippath-2);
      }

      .cls-41 {
        clip-path: url(#clippath-7);
      }

      .cls-42 {
        clip-path: url(#clippath-6);
      }

      .cls-43 {
        clip-path: url(#clippath-9);
      }

      .cls-44 {
        clip-path: url(#clippath-8);
      }

      .cls-45 {
        clip-path: url(#clippath-5);
      }

      .cls-2 {
        stroke: #f68b25;
        stroke-miterlimit: 10;
      }

      .cls-46 {
        fill: url(#linear-gradient-40);
      }

      .cls-47 {
        fill: url(#linear-gradient-10);
      }

      .cls-48 {
        fill: url(#linear-gradient-11);
      }

      .cls-49 {
        fill: url(#linear-gradient-12);
      }

      .cls-50 {
        fill: url(#linear-gradient-13);
      }

      .cls-51 {
        fill: url(#linear-gradient-19);
      }

      .cls-52 {
        fill: url(#linear-gradient-14);
      }

      .cls-53 {
        fill: url(#linear-gradient-21);
      }

      .cls-54 {
        fill: url(#linear-gradient-20);
      }

      .cls-55 {
        fill: url(#linear-gradient-22);
      }

      .cls-56 {
        fill: url(#linear-gradient-23);
      }

      .cls-57 {
        fill: url(#linear-gradient-28);
      }

      .cls-58 {
        fill: url(#linear-gradient-25);
      }

      .cls-59 {
        fill: url(#linear-gradient-32);
      }

      .cls-60 {
        fill: url(#linear-gradient-31);
      }

      .cls-61 {
        fill: url(#linear-gradient-33);
      }

      .cls-62 {
        fill: url(#linear-gradient-30);
      }

      .cls-63 {
        fill: url(#linear-gradient-15);
      }

      .cls-64 {
        fill: url(#linear-gradient-16);
      }

      .cls-65 {
        fill: url(#linear-gradient-17);
      }

      .cls-66 {
        fill: url(#linear-gradient-18);
      }

      .cls-67 {
        fill: url(#linear-gradient-35);
      }

      .cls-68 {
        fill: url(#linear-gradient-34);
      }

      .cls-69 {
        fill: url(#linear-gradient-36);
      }

      .cls-70 {
        fill: url(#linear-gradient-38);
      }

      .cls-71 {
        fill: url(#linear-gradient-27);
      }

      .cls-72 {
        fill: url(#linear-gradient-24);
      }

      .cls-73 {
        fill: url(#linear-gradient-26);
      }

      .cls-74 {
        fill: url(#linear-gradient-29);
      }

      .cls-75 {
        fill: url(#linear-gradient-37);
      }

      .cls-76 {
        fill: url(#linear-gradient-39);
      }

      .cls-77 {
        mask: url(#mask-10);
      }

      .cls-78 {
        mask: url(#mask-14);
      }

      .cls-79 {
        mask: url(#mask-18);
      }

      .cls-80 {
        mask: url(#mask-11);
      }

      .cls-81 {
        mask: url(#mask-16);
      }

      .cls-82 {
        mask: url(#mask-13);
      }

      .cls-83 {
        mask: url(#mask-19);
      }

      .cls-84 {
        mask: url(#mask-12);
      }

      .cls-85 {
        mask: url(#mask-17);
      }

      .cls-86 {
        mask: url(#mask-15);
      }

      .cls-87 {
        clip-path: url(#clippath);
      }
    </style>
    <clipPath id="clippath">
      <rect class="cls-1" width="1920" height="1080"/>
    </clipPath>
    <clipPath id="clippath-1">
      <rect class="cls-1" width="1920" height="1080"/>
    </clipPath>
    <clipPath id="clippath-2">
      <rect class="cls-1" width="1920" height="1080"/>
    </clipPath>
    <clipPath id="clippath-3">
      <rect class="cls-1" y="-1133.62" width="1920" height="1080"/>
    </clipPath>
    <clipPath id="clippath-4">
      <path class="cls-1" d="M1887.02-464.73c-10.8,30.89-21.5,61.79-32.1,92.74l-74.21,214.41c-37.78,109.14-108.6,197.42-197.41,257.51-39.63,26.83-82.84,48.05-128.29,63.02-76.03,25.02-158.33,32.49-240.64,19.4-14.39-2.3-28.78-5.23-43.15-8.79l-.17-.06c-2.73-.83-5.43-1.74-8.09-2.66-26.08-9.03-52.21-18.07-78.31-27.05t-.05-.02c-22.97-7.95-45.92-15.89-68.88-23.78C899.87,80,784.04,40.05,668.42-.52c-11.01-3.84-21.97-7.72-32.97-11.58-18.42-6.46-36.65-13.35-55.01-18.46-2.09-.83-4.25-1.69-6.38-2.43-2.96-1.03-5.93-1.89-8.91-2.7l-6.99-2.42c-1.72-.6-3.59-.65-5.34-.16l-101.45,28.53L80.23,94.63l-.03.02-59.12,16.66-36.17,10.13-.16.06-12.04,3.38-.24.06c-9.41,2.02-19.17,2.8-29,2.21,0,0-.03,0-.05-.02-7.89-.93-15.8-2.7-23.6-5.4-55.65-19.26-86.61-77.8-72.49-133.86.02-.07.04-.12.04-.21.32-.94.64-1.94.98-2.92L182.89-981.81c18.03-38.76,41.86-75.15,70.73-106.62,10.78-11.73,22.26-22.77,34.41-33.01,3.71-3.14,7.48-6.2,11.33-9.16.34-.27.68-.54,1.03-.81.94-.72,1.88-1.43,2.81-2.12,1.86-1.38,3.74-2.74,5.59-4.09.48-.36.99-.71,1.47-1.07,5.09-3.6,10.25-7.07,15.5-10.43.57-.36,1.13-.71,1.7-1.07,1.74-1.11,3.5-2.19,5.3-3.25,12.44-7.42,25.19-13.8,38.24-19.38,15.23-6.54,30.87-12,46.85-16.86,10.66-3.23,21.45-6.19,32.4-8.98,8.74-2.23,17.46-4.11,26.16-5.58.33-.08.65-.13.98-.19,27.05-4.63,53.87-5.89,80.56-4.2,13.37.84,26.69,2.41,39.98,4.68,4.44.76,8.86,1.57,13.3,2.5,8.87,1.8,17.71,3.89,26.56,6.29,8.86,2.37,17.7,5.05,26.52,7.99,4.42,1.45,8.77,2.95,13.07,4.52,17.24,6.3,33.74,13.42,49.49,21.47,11.49,5.88,22.55,12.2,33.22,19.08.09.06.21.13.29.19,23.45,16.08,44.83,34.46,63.91,54.76,13.6,14.47,26.07,29.93,37.26,46.17.03.04.06.09.09.13,12.88,21.03,23.71,43.3,32.34,66.38,0,0,0,0,0,0,1.19-.72,2.37-1.42,3.56-2.14,4.68-2.81,9.45-5.5,14.28-8.09,0-.02.03-.02.08-.06,2.18-1.02,4.36-2.06,6.59-3.06h.02c.87-.19,1.77-.38,2.69-.66,5.34-2.58,10.74-4.99,16.13-7.28.07-.03.11-.07.17-.08,18.43-7.23,37.44-13.09,56.85-17.47,8.71-1.99,17.5-3.65,26.36-5.04,13.88-2.14,27.9-3.57,42.06-4.22.11.01.22,0,.32.03,15.45-.43,31.06.16,46.91,1.66,44.03,4.15,85.16,13.57,123.07,28.63l.17.06c21.38,8.95,41.59,19.59,60.54,31.74,27.65,17.7,52.56,38.57,74.45,61.94,21.26,22.71,39.67,47.78,54.9,74.56,32.51,57.25,50.55,122.37,51.14,189.37-.02.05,0,.08-.01.11.28,32.21-3.47,64.85-11.58,97.22-.74,2.95-1.51,5.87-2.3,8.8l-93.78,270.95c-22.93,46.6-77.52,69.92-127.88,52.48-25.83-8.94-45.9-26.95-57.87-49.27-12.76-23.72-16.35-52.26-7.97-79.81l1.86-5.39,22.67-65.5,51.9-149.95s13.81-40.05,13.86-40.28c.03-.07.05-.15.05-.23,8.09-25.85,10.11-52.23,6.9-77.54-.02,0-.02-.03-.02-.03-3.41-26.68-12.63-52.22-26.84-74.76v-.02c-17.03-27.08-41.22-49.89-71.04-65.22-.61-.32-1.21-.64-1.84-.91-.61-.32-1.22-.64-1.83-.94-1.22-.62-2.47-1.19-3.73-1.76-1.52-.72-3.08-1.4-4.65-2.08-.55-.25-1.1-.49-1.64-.71-1.23-.51-2.44-1.01-3.66-1.49-2.41-.95-4.84-1.84-7.31-2.7-79.58-27.54-165.12,2.89-210.75,68.97-.4.44-.73.83-1.04,1.16-.04.04-.08.08-.12.12-2.54,3.43-4.79,6.97-6.97,10.64-3.23,5.24-6.03,10.8-8.6,16.47l-2.29,6.62c.48-1.8.97-3.67,1.44-5.53l-22.45,64.86-5.01,14.47-69.18,199.89c-.78,1.69-1.63,3.36-2.54,5.01-.43.76-.88,1.5-1.31,2.26-4.12,6.96-8.97,13.3-14.42,18.96-5.45,5.67-11.53,10.7-18.04,14.97-4.97,3.26-10.21,6.09-15.65,8.47-23.2,10.14-50.11,11.89-75.92,2.96-25.69-8.89-45.68-26.79-57.67-48.97-4.33-7.94-7.62-16.49-9.76-25.34-.28-1.18-.55-2.32-.79-3.48-2.94-14.84-2.68-30.44,1.26-45.83l94.39-272.7c.78-2.8,1.48-5.63,2.1-8.46,6.32-28.16,5.86-57.68-1.36-85.66-16.87-65.28-67.08-112.41-127.6-129.16-.93-.27-1.86-.53-2.8-.78-89.69-24.54-184.11,22.27-218.65,109.05-.04.04-.07.11-.09.19-1.45,3.23-2.79,6.53-4.02,9.86-4.57,12.55-9.08,25.12-13.53,37.72-7.47,20.95-14.8,41.95-22.14,62.92-3.88,11.21-7.85,22.42-11.77,33.62-18.63,53.98-37.18,108.08-55.82,162.06l-14.81,42.8c-20.07,57.91-40.15,115.76-60.18,173.63-15.64,45.2-31.25,90.44-46.79,135.67-5.05,14.85-10.18,29.64-15.3,44.43-1.57,4.54-3.12,9.1-4.67,13.57-.68,2.06-1.39,4.08-2.1,6.13-.2.57-.43,1.23-.73,1.96l-2.6,7.51c-.18.52-.34,1.07-.5,1.6l-.07.22c-3.67,10.6-.2,22.61,8.99,29.04,6.52,4.56,13.98,5.68,20.66,4.1l2.2-.62,65.33-18.38,317.18-89.19,14.84-4.19.12-.02c8.74-2.47,18.03-2.2,26.61.77l204.81,70.89c8.37,2.9,16.74,5.8,25.11,8.72,29.84,10.33,59.66,20.7,89.49,31.03,62.8,21.85,125.67,43.66,188.5,65.49,43.03,14.97,86.06,29.92,129.09,44.87,5.48,1.9,11.07,3.66,16.73,5.27,17.19,4.92,35.16,8.46,53.42,10.5,4.61.52,9.21.95,13.85,1.22.29.05.58.09.89.06,99.98,9.52,197.68-38.62,251-123.88.08-.14.14-.26.23-.34,1.6-2.24,3.14-4.5,4.66-6.74,13.03-19.42,19.39-41,29.14-61.49,9.44-27.27,18.88-54.54,28.36-81.79v-.03c.1-.02.22-.06.31-.09l112-323.6c.2-.59.43-1.15.63-1.74,9.72-26.64,19.77-53.37,27.86-80.58,5.46-18.25,10.03-36.72,13.01-55.49.28-1.67.51-3.39.79-5.07,3-21.06,3.59-42.18,1.88-62.96-.02-.59-.05-1.21-.15-1.82-4.45-64.24-32.45-124.88-78.15-169.93-4.48-4.56-9.14-9-13.99-13.28-6.26-5.49-12.91-10.55-19.7-15.48-6.7-4.84-13.66-9.29-20.85-13.36-11.82-6.69-24.23-12.31-37.09-16.77l-1146.95-396.97c-1.47-.51-2.93-1.08-4.36-1.68-1.45-.61-2.92-1.23-4.34-1.91-4.79-2.21-9.38-4.79-13.67-7.64-2.17-1.41-4.24-2.93-6.27-4.49-.72-.55-1.42-1.1-2.09-1.64-3.27-2.71-6.35-5.55-9.26-8.57-2.05-2.15-4.01-4.32-5.83-6.64-1.21-1.47-2.35-2.97-3.45-4.49-.03-.07-.06-.13-.13-.18-15.42-21.46-22.52-48.48-18.69-75.61l14.46-41.79c7.93-12.94,18.61-23.65,31.09-31.58,1.09-.73,2.19-1.42,3.29-2.1,1.21-.75,3.23-1.9,4.49-2.56,1.52-.8,2.98-1.57,4.5-2.29.39-.25.81-.41,1.24-.54,2.11-.98,4.27-1.87,6.5-2.73,1.97-.73,3.99-1.47,6.11-2.15,20.87-6.83,43.94-7.17,66.32.58,3.78,1.31,7.51,2.82,11.06,4.57l.27.09c2.79.97,5.43,1.88,8.12,2.75,15.73,4.97,31.36,10.33,46.89,15.71,10.02,3.49,20.01,7.01,30,10.58,21.08,7.49,42.15,15.03,63.28,22.29,62.88,21.71,125.83,43.41,188.74,65.1,31.57,10.9,63.2,21.82,94.79,32.73,31.3,10.81,62.6,21.61,93.9,32.44,34.3,11.82,68.56,23.65,102.83,35.48,28.64,9.86,57.28,19.74,85.91,29.62,62.91,21.77,125.82,43.46,188.78,65.17,24.25,8.4,48.51,16.79,72.8,25.17,37.02,12.81,74.08,25.61,111.15,38.44l.3.1c29.07,10.06,56.68,22.5,82.65,36.96,72.79,40.6,132.86,97.35,177.16,164.01,27.29,41.09,48.63,85.95,63.24,133.1,31.34,101.01,31.88,212.58-5.36,320.19l-48.9,141.28Z"/>
    </clipPath>
    <linearGradient id="linear-gradient" x1="0" y1="1080.09" x2="1" y2="1080.09" gradientTransform="translate(-2210875.6228 -1699.8728) rotate(90) scale(2047.7702 -2047.7701)" gradientUnits="userSpaceOnUse">
      <stop offset="0" stop-color="#fff"/>
      <stop offset="1" stop-color="#000"/>
    </linearGradient>
    <mask id="mask" x="-1088.32" y="-2717.88" width="3983.02" height="3982.92" maskUnits="userSpaceOnUse">
      <rect class="cls-12" x="-503.74" y="-2136.12" width="2813.85" height="2819.41" transform="translate(793.49 427.44) rotate(-45.76)"/>
    </mask>
    <linearGradient id="linear-gradient-2" x1="0" y1="1080.09" x2="1" y2="1080.09" gradientTransform="translate(-2210875.809 -1699.7717) rotate(90) scale(2047.7703 -2047.7703)" gradientUnits="userSpaceOnUse">
      <stop offset="0" stop-color="#f68b25"/>
      <stop offset="1" stop-color="#f68b25"/>
    </linearGradient>
    <clipPath id="clippath-5">
      <path class="cls-1" d="M502.05,588.8c-1.17.54-2.31,1.18-3.41,1.94h-.01c-1.4.98-2.79,1.94-4.19,2.91-.91.63-1.83,1.27-2.74,1.9-2.37,1.64-4.74,3.29-7.11,4.93-1.08.75-2.16,1.49-3.23,2.24-1.29.89-2.58,1.79-3.87,2.68-1.18.82-2.36,1.63-3.54,2.45-1.19.82-2.38,1.65-3.57,2.47-2.37,1.64-4.74,3.29-7.11,4.92-.79.55-1.6,1.1-2.4,1.64-.38.26-.76.52-1.14.78-.58.4-1.17.81-1.75,1.24-.1.07-.2.14-.3.21h0c-.15.08-.3.18-.44.28-.84.58-1.42,1.4-1.72,2.3-.03.09-.06.18-.08.27-.03.1-.05.2-.07.3,0,.02-.01.04-.01.06-.01.07-.02.14-.03.21,0,.06-.02.16-.03.22,0,.05,0,.11-.01.17-.04.64.06,1.29.31,1.89l1.09,1.58c.85.83,1.98,1.27,3.12,1.28,0,0,0,0,0,0,.08,0,.16,0,.25,0,.13,0,.25-.02.38-.03.18-.02.36-.06.54-.1.04,0,.07-.02.11-.03.11-.03.21-.07.32-.1.21-.08.42-.17.62-.28.06-.03.12-.07.18-.1.06-.04.11-.07.17-.11l43.23-29.9c.49-.33,1-.62,1.54-.87.33-.15.66-.28,1-.39.35-.11.69-.21,1.04-.29.27-.06.55-.11.82-.15,2.74-.44,5.58.13,7.94,1.62.02.01.05.03.07.04.77.47,1.49,1.03,2.15,1.68.05.05.11.1.16.16.58.58,1.11,1.22,1.61,1.88.74.98,1.42,2.01,2.1,3.04.02.02.03.05.05.07l8.44,12.2s0,0,0,.01h0c.71,1.03,1.42,2.06,2.13,3.08.47.87,1.06,1.64,1.4,2.59.04.11.08.22.12.33,0,0,0,.01,0,.02,1.61,4.05.79,8.69-2.1,11.94,0,.01-.02.02-.02.03-.13.15-.26.31-.4.45-.54.59-1.12,1.12-1.73,1.6-.2.16-.41.31-.61.45-1.62,1.12-3.25,2.24-4.87,3.36-2.37,1.64-4.74,3.27-7.11,4.91-1.12.78-2.25,1.55-3.38,2.33-.32.22-.63.44-.95.65l-7.72,5.34c-.32.23-.57.54-.71.91h0s-.23.63-.23.63l-5.01,13.36-1.03,2.75-.04.09c-.12.27-.35.51-.67.62-.46.16-.97-.03-1.24-.43h0s-.03-.05-.04-.07l-.2-.28s-.04-.05-.05-.07c-.05-.08-.11-.15-.16-.23-.12-.17-.24-.34-.36-.51-.38-.56-.77-1.12-1.16-1.67-1.18-1.7-2.36-3.4-3.54-5.11-1.51-2.18-3.02-4.36-4.52-6.55l-1.12-1.61c-1.41-2.03-2.82-4.07-4.23-6.1-.29-.42-.58-.85-.87-1.27-.55-.79-1.09-1.59-1.63-2.38-.33-.48-.65-.96-.97-1.44-.08-.13-.17-.26-.24-.39,0,0,0,0,0,0-2.15-3.43-1.36-7.92,1.79-10.43.03-.03.07-.05.1-.08,2.13-1.69,5.07-2.23,7.78-1.15,1.16.46,2.2,1.2,3.03,2.14.08.1.16.19.24.29l7.11,10.28c.44.53.98.94,1.57,1.22.05.02.09.04.14.06.36.15.75.26,1.13.31,1.08.15,2.22-.09,3.19-.76.97-.67,1.6-1.66,1.84-2.73.06-.25.09-.51.1-.76.02-.34,0-.68-.06-1.01-.06-.33-.16-.67-.29-.99-.02-.03-.03-.07-.05-.1-.03-.07-.07-.15-.11-.22l-5.21-7.53-.38-.55-1.69-2.44c.05.07.11.13.16.19l-.17-.25c-.13-.23-.25-.47-.36-.72-.07-.17-.14-.34-.19-.52,0,0,0,0,0,0,0-.02,0-.04-.01-.07-1.14-3.29-.01-7.05,2.99-9.13.09-.06.19-.13.28-.19.05-.03.1-.06.15-.09.02-.01.04-.03.07-.04.06-.04.13-.07.19-.11.05-.03.11-.06.16-.08.03-.01.05-.03.08-.04.03-.01.05-.03.08-.04,1.3-.65,2.71-.91,4.1-.81h0c1.15.08,2.28.41,3.3.98,0,0,0,0,0,0,.97.54,1.84,1.28,2.53,2.23,0,0,0,0,0,0,0,0,1.05,1.52,1.05,1.52l3.91,5.65,1.71,2.47.14.2c.75,1,1.84,1.6,2.99,1.77,1.09.15,2.23-.09,3.2-.76,1.9-1.31,2.48-3.82,1.44-5.81l-7.06-10.21c-.08-.1-.16-.2-.25-.31-.92-1.11-1.97-2.08-3.1-2.89,0,0,0,0,0,0-2.36-1.69-5.09-2.73-7.92-3.06-1.33-.15-2.67-.15-4.01,0-1.38.17-2.74.5-4.07,1.01-.91.35-1.8.79-2.66,1.3h0c-1.5.94-2.88,2.14-4.15,3.57-.46.51-.88,1.05-1.26,1.6,0,0,0,0-.01.01-.34.51-.65,1.04-.93,1.58-.18.34-.35.69-.5,1.05-.34.79-.63,1.61-.85,2.43,0,0,0,0,0,0-.06.25-.11.5-.16.75-.01.04-.03.08-.05.11h0c-.02.11-.04.21-.06.31,0,0,0,0,0,0-.03.24-.06.47-.08.71,0,.06-.01.12-.02.18-1.03-.29-2.08-.48-3.15-.57h0c-.85-.02-1.71.02-2.57.12-1.2.15-2.39.42-3.55.83,0,0,0,0-.01,0-.51.2-1.02.42-1.52.67-.68.34-1.36.74-2.02,1.18-.17.11-.33.22-.49.34-.33.23-.65.47-.96.72-.31.25-.61.5-.9.77-.15.13-.29.26-.43.4-.42.41-.82.83-1.19,1.28-.74.89-1.38,1.86-1.92,2.92,0,.01-.01.03-.02.04-.17.34-.33.7-.48,1.06-.18.45-.36.91-.52,1.36-.24.68-.45,1.37-.61,2.07-.14.6-.24,1.21-.3,1.83,0,.09-.02.18-.02.27,0,.03,0,.06,0,.09-.02.27-.03.54-.03.81,0,.03,0,.05,0,.08v.3c0,.05,0,.1,0,.15,0,.02,0,.04,0,.06,0,.21.02.42.03.63.05.69.14,1.37.27,2.05.36,1.81,1.02,3.58,1.91,5.2l25.2,36.43s.05.07.08.11h0c1.6,1.93,4.43,2.35,6.53.9.29-.2.56-.43.79-.69,0,0,0,0,0,0,.27-.33.49-.69.67-1.07h0s.19-.52.19-.52h0s.57-1.53.57-1.53l.93-2.49h0s5.86-15.64,5.86-15.64l1.6-4.27c.03-.07.08-.14.14-.18l.26-.18c.1-.08.21-.17.32-.24.08-.06.17-.11.25-.16.65-.51,1.36-.97,2.05-1.45.42-.29.83-.57,1.25-.86,4.38-3,8.74-6.02,13.1-9.05.86-.6,1.73-1.2,2.59-1.8h0c.98-.68,1.97-1.37,2.95-2.04.1-.07.2-.14.3-.21h0c.49-.42.96-.84,1.41-1.29,2.56-2.54,4.41-5.61,5.48-8.9.64-1.97,1.01-4.02,1.08-6.1.18-4.64-1.1-9.37-3.94-13.49l-5.59-8.08c-.81-1.16-1.61-2.33-2.42-3.5l-3.68-5.33c-2.8-4.06-6.72-6.89-11.05-8.38-2.02-.7-4.14-1.1-6.27-1.2-.34-.02-.68-.02-1.03-.02-3.13,0-6.28.66-9.24,2.01"/>
    </clipPath>
    <linearGradient id="linear-gradient-3" x1="0" y1="1080" x2="1" y2="1080" gradientTransform="translate(455.2621 97852.3071) scale(90.0146 -90.0146)" xlink:href="#linear-gradient"/>
    <mask id="mask-1" x="455.23" y="586.79" width="90.21" height="100.12" maskUnits="userSpaceOnUse">
      <rect class="cls-10" x="455.23" y="586.79" width="90.21" height="100.12"/>
    </mask>
    <linearGradient id="linear-gradient-4" x1="0" y1="1080" x2="1" y2="1080" gradientTransform="translate(455.2621 97852.3071) scale(90.0146 -90.0146)" xlink:href="#linear-gradient-2"/>
    <clipPath id="clippath-6">
      <path class="cls-1" d="M96.33,796.29c-.09.02-.18.05-.27.08-.1.03-.19.06-.29.1-.02,0-.04.01-.06.02-.07.03-.13.06-.2.09-.06.02-.15.07-.2.1-.05.03-.1.05-.15.08-.56.31-1.04.75-1.42,1.29l-.72,1.77c-.23,1.16.02,2.35.64,3.31,0,0,0,0,0,0,.04.07.09.13.14.2.07.11.15.2.24.3.12.14.24.27.38.39.03.02.06.05.09.08.08.07.17.14.26.21.18.13.37.25.57.36.06.03.12.06.18.09.06.03.12.06.18.08l48.7,19.78c.55.22,1.07.5,1.57.81.3.19.59.4.87.62.28.23.56.46.82.72.2.2.39.4.57.6,1.87,2.05,2.95,4.74,2.99,7.53,0,.03,0,.05,0,.08.03.9-.05,1.82-.22,2.72-.01.07-.03.15-.04.22-.17.81-.41,1.59-.69,2.37-.41,1.16-.91,2.29-1.39,3.42,0,.03-.02.05-.03.07l-5.58,13.74s0,0-.01,0h0c-.47,1.16-.94,2.32-1.41,3.47-.47.86-.79,1.78-1.4,2.59-.07.09-.14.19-.22.28,0,0,0,0-.01.01-2.5,3.57-6.83,5.42-11.14,4.79-.01,0-.03,0-.04,0-.2-.02-.4-.05-.6-.09-.79-.13-1.56-.32-2.29-.58-.24-.08-.48-.17-.71-.26-1.83-.74-3.65-1.49-5.48-2.24-2.67-1.09-5.34-2.17-8-3.26-1.27-.51-2.53-1.03-3.8-1.55-.36-.15-.71-.29-1.07-.43l-8.7-3.53c-.36-.15-.76-.18-1.15-.09h0l-.65.15-13.92,3.13-2.87.65-.1.02c-.29.05-.61-.01-.88-.22-.38-.3-.51-.83-.32-1.28h0s.02-.06.03-.08l.13-.32s.03-.06.04-.08c.03-.09.07-.17.1-.26.08-.19.15-.38.23-.58.26-.63.51-1.26.76-1.89.78-1.92,1.55-3.84,2.33-5.76,1-2.46,2-4.91,3-7.37l.74-1.82c.93-2.29,1.85-4.59,2.78-6.88.2-.48.39-.95.59-1.43.36-.89.73-1.78,1.1-2.67.22-.53.44-1.07.67-1.6.06-.14.13-.28.2-.42,0,0,0,0,0,0,1.69-3.67,5.88-5.48,9.7-4.22.04.01.08.03.12.04,2.58.86,4.64,3.02,5.23,5.88.25,1.23.2,2.5-.14,3.71-.03.12-.07.24-.11.36l-4.7,11.58c-.21.66-.25,1.33-.16,1.98,0,.05.02.1.03.15.07.39.2.76.36,1.12.47.99,1.29,1.81,2.38,2.25,1.1.45,2.26.43,3.29.04.24-.09.47-.2.7-.33.29-.17.57-.38.81-.61.25-.23.47-.5.67-.79.02-.03.04-.06.06-.1.04-.07.08-.14.12-.21l3.45-8.49.25-.62,1.12-2.75c-.02.08-.05.16-.07.24l.11-.28c.12-.24.26-.47.41-.69.1-.15.21-.3.33-.44,0,0,0,0,0,0,.01-.01.03-.03.05-.05,2.12-2.75,5.89-3.88,9.27-2.5.1.04.21.09.31.13.05.02.1.05.15.07.02.01.05.02.07.03.07.03.13.07.2.1.05.03.11.05.16.08.03.01.05.03.08.05.03.01.05.03.08.04,1.26.73,2.25,1.77,2.92,2.98h0c.56,1.01.91,2.13.99,3.3,0,0,0,0,0,0,.08,1.1-.07,2.24-.47,3.34,0,0,0,0,0,0,0,0-.69,1.71-.69,1.71l-2.59,6.37-1.13,2.78-.09.23c-.42,1.17-.33,2.41.16,3.47.47.99,1.29,1.82,2.39,2.26,2.14.87,4.55-.02,5.65-1.98l4.67-11.5c.04-.12.08-.25.12-.38.42-1.38.66-2.78.72-4.18,0,0,0,0,0,0,.13-2.9-.51-5.76-1.78-8.31-.6-1.19-1.34-2.32-2.21-3.35-.89-1.06-1.92-2.02-3.08-2.85-.79-.57-1.64-1.08-2.55-1.51h0c-1.61-.74-3.36-1.24-5.26-1.52-.68-.1-1.36-.16-2.03-.18,0,0,0,0-.01,0-.61,0-1.22.02-1.83.09-.39.04-.77.09-1.15.16-.85.14-1.68.35-2.5.63,0,0,0,0,0,0-.24.09-.48.18-.71.28-.04.01-.08.02-.12.02h0c-.1.04-.2.08-.29.12,0,0,0,0,0,0-.21.1-.43.21-.64.32l-.16.08c-.32-1.02-.74-2.01-1.25-2.94,0,0,0,0,0,0-.45-.73-.95-1.42-1.51-2.08-.78-.92-1.66-1.76-2.64-2.51,0,0,0,0-.01,0-.45-.32-.91-.62-1.39-.9-.66-.38-1.36-.73-2.09-1.04-.18-.08-.37-.15-.56-.22-.38-.15-.75-.28-1.13-.41-.38-.12-.76-.24-1.14-.33-.19-.05-.38-.1-.57-.14-.57-.13-1.14-.23-1.72-.29-1.15-.13-2.31-.14-3.49,0-.01,0-.03,0-.04,0-.38.04-.76.11-1.14.18-.48.1-.95.2-1.42.32-.7.17-1.39.37-2.06.62-.58.21-1.14.46-1.7.75-.08.04-.16.09-.24.13-.03.02-.05.03-.07.04-.24.13-.47.27-.69.42-.02.02-.05.03-.07.04-.08.05-.17.11-.25.16-.04.03-.08.06-.13.09-.02.01-.03.02-.05.03-.17.12-.34.24-.51.37-.55.41-1.07.87-1.56,1.35-1.32,1.29-2.43,2.82-3.3,4.45l-16.67,41.04s-.03.08-.05.12c0,0,0,0,0,0-.74,2.39.47,4.99,2.83,5.95.33.14.67.23,1.01.29h0c.42.05.85.04,1.26-.03h.01s.53-.12.53-.12h0s1.59-.36,1.59-.36l2.59-.58h0s16.29-3.67,16.29-3.67l4.45-1c.08-.02.16-.01.23.02l.3.12c.13.04.25.09.38.14.09.04.18.08.27.12.78.26,1.56.6,2.34.92.47.19.93.39,1.4.58,4.91,2.02,9.83,4.01,14.74,6,.98.39,1.95.79,2.93,1.19t0,0c1.11.45,2.22.9,3.33,1.35.11.05.23.09.34.13h0c.61.19,1.23.35,1.85.48,3.53.75,7.11.62,10.45-.29,2-.54,3.92-1.36,5.69-2.43,3.98-2.4,7.24-6.05,9.12-10.69l3.7-9.1c.53-1.31,1.06-2.63,1.6-3.94l2.44-6c1.86-4.57,2.09-9.39.96-13.83-.52-2.07-1.35-4.06-2.43-5.9-1.76-2.98-4.23-5.58-7.29-7.5-1.09-.68-2.26-1.29-3.49-1.79h-.01c-1.57-.64-3.15-1.28-4.72-1.92-1.03-.42-2.06-.84-3.09-1.25-2.67-1.08-5.35-2.16-8.01-3.25-1.22-.49-2.43-.98-3.65-1.48-1.45-.59-2.91-1.18-4.37-1.77-1.33-.54-2.66-1.08-3.99-1.62-1.34-.54-2.68-1.09-4.03-1.63-2.67-1.08-5.34-2.16-8.01-3.25-.9-.36-1.79-.74-2.68-1.11-.43-.18-.85-.35-1.27-.53-.66-.27-1.32-.54-1.99-.79-.11-.04-.23-.09-.34-.14h-.01c-.15-.09-.31-.16-.47-.23-.56-.23-1.13-.33-1.69-.33-.4,0-.79.05-1.17.16"/>
    </clipPath>
    <linearGradient id="linear-gradient-5" y1="1080" y2="1080" gradientTransform="translate(66.2087 101859.9701) scale(93.54 -93.54)" xlink:href="#linear-gradient"/>
    <mask id="mask-2" x="65.69" y="796.13" width="94.51" height="81.51" maskUnits="userSpaceOnUse">
      <rect class="cls-6" x="65.69" y="796.13" width="94.51" height="81.51"/>
    </mask>
    <linearGradient id="linear-gradient-6" y1="1080" y2="1080" gradientTransform="translate(66.2087 101859.9701) scale(93.54 -93.54)" xlink:href="#linear-gradient-2"/>
    <clipPath id="clippath-7">
      <path class="cls-1" d="M379.15,951.24c-.09.02-.18.05-.27.08-.1.03-.19.07-.29.1-.02,0-.04.01-.05.02-.07.03-.13.06-.2.09-.06.03-.15.07-.2.1-.05.03-.1.05-.15.08-.56.32-1.04.75-1.42,1.3l-.72,1.78c-.23,1.16.02,2.35.64,3.31,0,0,0,0,0,0,.04.07.09.13.14.2.07.11.15.2.24.3.12.14.24.27.38.39.03.03.06.05.09.08.08.07.17.14.26.21.18.13.37.26.57.36.06.03.12.06.18.09.06.03.12.06.18.08l48.7,19.78c.55.22,1.07.49,1.57.81.3.19.59.4.87.62.28.23.56.46.82.71.2.2.39.4.58.61,1.87,2.05,2.95,4.74,2.99,7.53,0,.03,0,.05,0,.08.03.9-.05,1.82-.23,2.72-.02.07-.03.14-.05.22-.17.8-.41,1.59-.69,2.37-.41,1.16-.91,2.29-1.39,3.42,0,.02-.02.05-.03.07l-5.58,13.74s0,0-.01,0h0c-.47,1.16-.94,2.32-1.41,3.47-.47.86-.79,1.78-1.4,2.59-.07.09-.14.19-.22.28,0,0,0,0-.01.01-2.5,3.57-6.83,5.43-11.14,4.79-.01,0-.03,0-.04,0-.2-.02-.4-.05-.6-.08-.79-.13-1.55-.32-2.29-.57-.24-.08-.48-.17-.71-.27-1.83-.74-3.65-1.49-5.48-2.24-2.67-1.09-5.34-2.17-8-3.26-1.27-.51-2.53-1.03-3.8-1.55-.36-.14-.71-.29-1.07-.43l-8.7-3.53c-.37-.15-.77-.18-1.15-.09h0l-.65.15-13.92,3.14-2.87.65-.1.02c-.29.05-.61-.01-.88-.22-.38-.3-.51-.83-.32-1.28h0s.02-.06.02-.08l.13-.32s.03-.06.04-.08c.04-.09.07-.17.1-.26.08-.19.15-.38.23-.58.26-.63.51-1.26.76-1.89.77-1.92,1.55-3.84,2.33-5.76,1-2.46,2-4.91,3-7.37l.74-1.82c.93-2.29,1.85-4.59,2.78-6.88.2-.48.39-.95.58-1.43.37-.89.73-1.78,1.1-2.67.22-.53.44-1.07.67-1.6.06-.14.13-.28.2-.42,0,0,0,0,0,0,1.69-3.68,5.88-5.48,9.71-4.22.04.01.08.03.12.04,2.58.86,4.64,3.01,5.23,5.88.25,1.23.2,2.5-.14,3.71-.03.12-.07.24-.11.36l-4.7,11.58c-.21.66-.25,1.33-.16,1.98,0,.05.02.1.03.15.07.39.2.76.36,1.12.47.99,1.29,1.81,2.38,2.25,1.1.45,2.26.43,3.29.05.24-.09.47-.2.7-.33.29-.17.57-.37.82-.61.25-.23.47-.5.67-.79.02-.03.04-.06.06-.1.04-.07.08-.14.12-.21l3.45-8.49.25-.61,1.12-2.75c-.02.08-.05.16-.07.24l.11-.28c.12-.24.26-.47.41-.69.1-.15.21-.3.33-.44,0,0,0,0,0,0,.01-.01.03-.03.05-.05,2.12-2.75,5.89-3.88,9.27-2.5.1.04.21.09.31.13.05.02.1.05.15.07.02,0,.05.02.07.03.07.03.13.07.2.1.05.03.11.06.16.08.03.01.05.03.08.05.03.01.05.03.08.04,1.26.73,2.25,1.77,2.92,2.98h0c.56,1.01.9,2.13.99,3.3,0,0,0,0,0,0,.08,1.1-.07,2.24-.47,3.34,0,0,0,0,0,.01,0,.01-.69,1.71-.69,1.71l-2.59,6.37-1.13,2.78-.09.23c-.42,1.17-.33,2.41.16,3.47.47.99,1.29,1.82,2.39,2.26,2.14.87,4.55-.01,5.65-1.98l4.67-11.5c.04-.12.08-.25.12-.38.42-1.38.66-2.78.72-4.18,0,0,0,0,0,0,.13-2.9-.51-5.76-1.78-8.31-.6-1.19-1.34-2.32-2.2-3.35-.89-1.06-1.92-2.02-3.08-2.85-.79-.57-1.64-1.07-2.54-1.51h0c-1.61-.74-3.36-1.24-5.26-1.52-.68-.1-1.36-.16-2.02-.18,0,0-.01,0-.01,0-.61,0-1.22.03-1.83.09-.39.04-.77.09-1.15.16-.85.14-1.68.35-2.5.62,0,0,0,0,0,0-.24.09-.48.18-.71.28-.04.01-.08.02-.12.02-.1.04-.2.08-.29.12,0,0,0,0,0,0-.21.1-.43.21-.64.32-.05.03-.11.06-.16.08h0c-.32-1.02-.74-2-1.25-2.94,0,0,0,0,0,0-.45-.73-.95-1.42-1.51-2.08-.78-.92-1.66-1.76-2.64-2.51,0,0,0,0-.01,0-.45-.32-.91-.62-1.39-.9-.66-.38-1.36-.73-2.09-1.04-.18-.08-.37-.15-.55-.23-.38-.15-.75-.28-1.13-.41-.38-.12-.76-.24-1.14-.33-.19-.05-.38-.1-.57-.14-.57-.13-1.14-.23-1.72-.29-1.15-.13-2.31-.14-3.49,0-.01,0-.03,0-.04,0-.38.04-.76.11-1.15.18-.48.1-.95.2-1.42.31-.7.17-1.39.38-2.06.62-.58.21-1.14.46-1.7.75-.08.04-.16.08-.24.13-.03.01-.05.03-.08.04-.24.13-.47.27-.69.42-.02.01-.05.03-.07.04-.08.05-.17.11-.25.16-.04.03-.08.06-.13.09-.02.01-.03.02-.05.03-.17.12-.34.24-.51.37-.55.42-1.07.87-1.56,1.35-1.32,1.29-2.43,2.81-3.3,4.45l-16.67,41.04s-.03.08-.05.12c0,0,0,0,0,0-.74,2.39.47,4.99,2.83,5.95.33.14.67.23,1.01.29,0,0,0,0,0,0,.42.05.85.04,1.26-.03h.01s.53-.12.53-.12h0s1.59-.36,1.59-.36l2.59-.59h0s16.29-3.67,16.29-3.67l4.45-1c.08-.02.16-.01.23.02l.3.12c.13.04.25.08.38.14.09.04.18.08.27.12.78.26,1.55.6,2.34.92.47.19.93.39,1.4.58,4.91,2.02,9.83,4.01,14.74,6,.98.39,1.95.79,2.92,1.18t0,0c1.11.45,2.22.9,3.33,1.35.11.05.23.09.34.13h0c.61.19,1.23.35,1.85.48,3.53.75,7.11.62,10.45-.29,2-.54,3.92-1.36,5.69-2.43,3.98-2.4,7.24-6.05,9.12-10.69l3.7-9.1c.53-1.31,1.06-2.63,1.6-3.94l2.44-6c1.86-4.57,2.09-9.4.96-13.84-.52-2.07-1.34-4.06-2.43-5.9-1.76-2.98-4.23-5.57-7.29-7.5-1.09-.68-2.26-1.29-3.49-1.79h-.01c-1.57-.64-3.15-1.28-4.72-1.92-1.03-.42-2.06-.84-3.09-1.25-2.67-1.08-5.34-2.16-8.02-3.25-1.22-.49-2.43-.99-3.65-1.48-1.46-.59-2.91-1.18-4.37-1.77-1.33-.54-2.66-1.08-3.99-1.62-1.34-.54-2.68-1.09-4.02-1.63-2.67-1.08-5.35-2.16-8.02-3.25-.9-.36-1.79-.74-2.68-1.11-.42-.18-.85-.35-1.27-.53-.66-.27-1.32-.54-1.99-.79-.12-.04-.23-.09-.35-.14h-.01c-.15-.09-.31-.16-.47-.23-.55-.22-1.13-.33-1.69-.33-.4,0-.79.05-1.17.16"/>
    </clipPath>
    <linearGradient id="linear-gradient-7" y1="1080" y2="1080" gradientTransform="translate(349.0329 102014.9205) scale(93.54 -93.54)" xlink:href="#linear-gradient"/>
    <mask id="mask-3" x="348.51" y="951.08" width="94.51" height="81.51" maskUnits="userSpaceOnUse">
      <rect class="cls-5" x="348.51" y="951.08" width="94.51" height="81.51"/>
    </mask>
    <linearGradient id="linear-gradient-8" y1="1080" y2="1080" gradientTransform="translate(349.0329 102014.9205) scale(93.54 -93.54)" xlink:href="#linear-gradient-2"/>
    <clipPath id="clippath-8">
      <path class="cls-1" d="M148.72,594.93l-.02.03c-3.08,4.7-6.17,9.41-9.25,14.11-2.2,3.37-4.41,6.73-6.61,10.1-5.71,8.74-11.42,17.47-17.14,26.2-2.6,3.97-5.2,7.95-7.79,11.92-3.11,4.75-6.23,9.51-9.33,14.27-2.85,4.34-5.69,8.68-8.53,13.03-2.87,4.38-5.74,8.77-8.6,13.15-5.71,8.73-11.42,17.47-17.13,26.19-1.92,2.93-3.87,5.85-5.81,8.77-.92,1.38-1.84,2.76-2.76,4.15-1.41,2.15-2.82,4.33-4.18,6.52-.24.38-.48.74-.73,1.13l-.03.04c-.4.47-.78.98-1.12,1.51-2.03,3.1-2.87,6.62-2.63,10.06.02.35.06.68.1,1.01.04.37.09.74.16,1.09,0,.07.01.14.03.21.05.26.11.51.18.77.05.21.15.57.22.78.06.2.12.39.19.58.73,2.2,1.95,4.23,3.61,5.94l5.79,3.8c3.98,1.62,8.36,1.58,12.21.06.01,0,.02-.01.03-.01.27-.11.54-.23.81-.36.42-.19.83-.4,1.23-.63.57-.33,1.12-.69,1.66-1.08.11-.08.22-.16.33-.25.31-.25.62-.5.92-.78.6-.55,1.16-1.14,1.68-1.79.16-.19.31-.39.45-.58.15-.2.29-.4.42-.6l99.14-151.26c4.98-7.6,2.86-17.8-4.74-22.79-2.78-1.82-5.91-2.7-9.01-2.7-5.36,0-10.61,2.61-13.77,7.42"/>
    </clipPath>
    <linearGradient id="linear-gradient-9" y1="1080" y2="1080" gradientTransform="translate(47.0168 143157.2143) scale(131.9238 -131.9238)" xlink:href="#linear-gradient"/>
    <mask id="mask-4" x="46.82" y="587.51" width="134.41" height="184.39" maskUnits="userSpaceOnUse">
      <rect class="cls-8" x="46.82" y="587.51" width="134.41" height="184.39"/>
    </mask>
    <linearGradient id="linear-gradient-10" y1="1080" y2="1080" gradientTransform="translate(47.0168 143157.2143) scale(131.9238 -131.9238)" xlink:href="#linear-gradient-2"/>
    <clipPath id="clippath-9">
      <path class="cls-1" d="M316.87,779.96c-3.59.34-7.19.99-10.77,1.97h-.03c-6.27,1.85-12.39,4.73-18.35,8.55-2.15,1.38-4.18,2.84-6.08,4.42-.01,0-.03.02-.04.03-1.72,1.48-3.35,3.04-4.89,4.68-.98,1.05-1.93,2.13-2.83,3.24-2.02,2.46-3.84,5.08-5.45,7.81,0,0,0,.02-.01.03-.45.82-.9,1.66-1.32,2.51-.09.13-.18.24-.27.35h0c-.19.35-.36.69-.53,1.04,0,.01,0,.01,0,.02-.35.8-.69,1.61-1,2.43-.08.21-.16.41-.24.62-3.36-2.06-6.93-3.8-10.63-5.18,0,0-.02,0-.02,0-3.01-.94-6.11-1.67-9.26-2.15-4.41-.68-8.92-.89-13.46-.6-.02,0-.04,0-.06,0-2.03.18-4.04.48-6.07.87-2.78.54-5.57,1.27-8.36,2.18-.7.22-1.39.46-2.1.72-1.4.5-2.78,1.03-4.13,1.61-1.35.57-2.68,1.18-3.97,1.83-.65.32-1.29.65-1.92.99-1.9,1.03-3.74,2.14-5.51,3.36-3.53,2.42-6.79,5.23-9.74,8.48-.04.04-.07.08-.11.12-.95,1.04-1.87,2.14-2.75,3.29-1.1,1.43-2.17,2.87-3.2,4.33-1.54,2.19-2.97,4.42-4.25,6.75-1.1,1.99-2.07,4.05-2.91,6.22-.12.31-.24.62-.35.93-.04.1-.07.2-.11.3-.33.94-.64,1.89-.92,2.85-.02.09-.06.19-.08.28-.1.35-.2.71-.3,1.07-.05.18-.1.36-.14.54-.01.07-.03.14-.05.2-.2.75-.37,1.51-.53,2.28-.52,2.49-.88,5.01-1.08,7.56-.54,6.82.05,13.76,1.6,20.43l12.24,35.63c2.93,8.54,12.24,13.09,20.78,10.16,8.54-2.93,13.09-12.24,10.16-20.79-1.25-3.61-2.49-7.21-3.73-10.81-.61-1.8-1.22-3.61-1.83-5.41-1.14-3.37-2.29-6.74-3.42-10.12-.68-2.03-1.35-4.06-2.02-6.09-.17-.54-.33-1.09-.46-1.64,0-.01,0-.02,0-.04-4.21-14.36,3.08-29.58,16.81-35.34.15-.06.29-.12.43-.18,9.29-3.86,20.27-2.87,28.84,3.7,3.67,2.81,6.65,6.5,8.63,10.67.2.42.39.84.57,1.27l15.01,43.72c1.02,2.33,2.53,4.32,4.37,5.9.15.12.29.24.44.36,1.14.9,2.4,1.66,3.73,2.24,3.7,1.61,7.99,1.9,12.11.48,4.13-1.42,7.36-4.3,9.28-7.87.45-.84.84-1.71,1.14-2.61.4-1.18.67-2.41.8-3.67.13-1.25.11-2.53-.05-3.81-.02-.14-.04-.28-.06-.41-.05-.3-.11-.59-.17-.88l-15.37-44.76c.12.28.24.57.36.84l-.36-1.06c-.23-.97-.43-1.95-.54-2.93-.09-.68-.15-1.34-.17-2.03,0,0,0-.02,0-.03,0-.07,0-.15.01-.25-.77-12.84,7.02-25.12,19.78-29.5.4-.14.79-.26,1.19-.38.2-.06.4-.12.61-.17.09-.03.19-.05.28-.07.27-.07.53-.14.79-.2.22-.05.43-.11.64-.15.11-.02.22-.04.33-.06.11-.02.21-.05.32-.07,5.27-1.01,10.57-.52,15.4,1.21h0c4.02,1.44,7.7,3.75,10.77,6.79,0,0,0,0,0,0,2.9,2.88,5.25,6.4,6.79,10.46,0,.01.01.02.02.04.02.03,2.23,6.45,2.23,6.45l12.16,35.4c1.66,4.3,4.93,7.55,8.89,9.28,3.71,1.64,8.02,1.93,12.16.51,8.07-2.77,12.66-11.1,10.95-19.24l-14.92-43.43c-.19-.45-.38-.89-.58-1.34-2.17-4.88-4.92-9.37-8.14-13.41,0,0,0,0,0-.02-6.69-8.39-15.39-14.82-25.14-18.84-4.57-1.88-9.36-3.22-14.29-3.99-3.16-.49-6.38-.74-9.62-.74-1.95,0-3.92.09-5.89.28"/>
    </clipPath>
    <linearGradient id="linear-gradient-11" y1="1080" y2="1080" gradientTransform="translate(172.8379 241658.8539) scale(222.965 -222.965)" xlink:href="#linear-gradient"/>
    <mask id="mask-5" x="172.5" y="779.68" width="224.66" height="155.96" maskUnits="userSpaceOnUse">
      <rect class="cls-48" x="172.5" y="779.68" width="224.66" height="155.96"/>
    </mask>
    <linearGradient id="linear-gradient-12" y1="1080" y2="1080" gradientTransform="translate(172.8379 241658.8539) scale(222.965 -222.965)" xlink:href="#linear-gradient-2"/>
    <clipPath id="clippath-10">
      <path class="cls-1" d="M122.88,951.08l-19.72,73.23c-.04.13-.07.27-.11.39,0,.01,0,.02,0,.03-1.35,7.57,3.31,15.06,10.87,17.1,1.06.28,2.12.44,3.18.49,0,0,0,0,0,0,1.31-.01,2.6-.21,3.83-.56h.03s1.57-.57,1.57-.57h.01s4.71-1.69,4.71-1.69l7.69-2.76h0s48.3-17.32,48.3-17.32l9.26-3.32,3.78-1.36c.28-.14.56-.3.83-.47,6.42-4.02,8.37-12.49,4.34-18.92-3.39-5.42-9.96-7.65-15.78-5.8-.02,0-.03,0-.05.02l-.86.3-34.16,12.25-8.5,3.05-.29.1c-.87.27-1.87.19-2.78-.35-1.28-.77-1.85-2.33-1.47-3.77v-.03c.03-.07.04-.15.06-.22l.28-1.02c.03-.1.06-.19.08-.27.08-.27.15-.55.22-.83.17-.6.33-1.23.49-1.84.54-2.01,1.08-4.03,1.61-6.04,1.64-6.15,3.29-12.3,4.95-18.45,1.28-4.76,2.56-9.52,3.85-14.29,1.94-7.22-2.36-14.65-9.61-16.6-1.19-.32-2.39-.47-3.56-.47-5.99,0-11.47,3.97-13.09,10"/>
    </clipPath>
    <linearGradient id="linear-gradient-13" y1="1080" y2="1080" gradientTransform="translate(102.8192 109810.8904) scale(100.7585 -100.7585)" xlink:href="#linear-gradient"/>
    <mask id="mask-6" x="101.7" y="941.08" width="103.81" height="101.25" maskUnits="userSpaceOnUse">
      <rect class="cls-50" x="101.7" y="941.08" width="103.81" height="101.25"/>
    </mask>
    <linearGradient id="linear-gradient-14" y1="1080" y2="1080" gradientTransform="translate(102.8192 109810.8904) scale(100.7585 -100.7585)" xlink:href="#linear-gradient-2"/>
    <clipPath id="clippath-11">
      <path class="cls-1" d="M364.14,483.36c-2.48,2.66-4.08,6.16-4.31,10.07-.13,2.16.17,4.25.83,6.18,1.37,4.02,4.28,7.36,8.07,9.27.56.23,1.11.47,1.66.73.1.04.19.08.28.13.95.46,1.88.95,2.78,1.47,9.14,5.05,16.2,13.32,19.72,23.19.04.09.07.19.11.28,1.18,3.18,2.02,6.52,2.48,9.95.03.28.07.56.09.83.36,3.08.46,6.17.41,9.27-.07,4.62-.48,9.25-.82,13.86,0,.1-.01.2-.02.3l-3.31,55.64s-.03.02-.05.03h0c-.29,4.7-.57,9.38-.85,14.07-.63,3.64-.67,7.31-1.86,10.92-.14.41-.28.84-.43,1.26-.01.02-.01.04-.02.06-4.61,15.71-17.8,27.55-33.88,30.46-.05.02-.1.03-.15.03-.74.16-1.48.3-2.23.42-2.95.49-5.92.72-8.83.71-.96,0-1.92-.03-2.86-.09-7.4-.45-14.8-.9-22.21-1.35-10.8-.66-21.61-1.31-32.42-1.97-5.13-.31-10.26-.62-15.39-.92-1.35-.08-2.69-.17-4.05-.25,0,0,0,0,0,0-.09,0-.17,0-.26-.02l-4.61-.27c-3.69.31-7.3,1.84-10.19,4.6-6.72,6.43-6.96,17.08-.54,23.79,2.4,2.51,5.4,4.12,8.56,4.81,0,0,.01,0,.02,0,1.69.11,3.38.21,5.07.31,17.27,1.08,34.55,2.09,51.83,3.11,3.95.22,7.89.45,11.84.7h0c4.49.26,8.98.52,13.47.79.45.02.92.05,1.38.06h.03c2.41-.07,4.79-.25,7.15-.52,13.47-1.57,26.04-6.36,36.86-13.63,6.47-4.35,12.3-9.57,17.33-15.52,11.27-13.32,18.48-30.27,19.6-49.04l2.19-36.87c.3-5.32.62-10.63.95-15.94l1.44-24.29c1.1-18.51-3.89-35.97-13.25-50.41-4.36-6.74-9.68-12.84-15.76-18.07-4.24-3.65-8.86-6.89-13.79-9.64-1.79-1.45-3.89-2.54-6.2-3.12-.99-.25-2.01-.41-3.06-.48-.33-.02-.66-.03-.99-.03-4.64,0-8.87,1.98-11.84,5.17"/>
    </clipPath>
    <linearGradient id="linear-gradient-15" y1="1080" y2="1080" gradientTransform="translate(246.638 197751.3071) scale(182.5503 -182.5503)" xlink:href="#linear-gradient"/>
    <mask id="mask-7" x="244.88" y="478.19" width="185.26" height="237.57" maskUnits="userSpaceOnUse">
      <rect class="cls-63" x="244.88" y="478.19" width="185.26" height="237.57"/>
    </mask>
    <linearGradient id="linear-gradient-16" y1="1080" y2="1080" gradientTransform="translate(246.638 197751.3071) scale(182.5503 -182.5503)" xlink:href="#linear-gradient-2"/>
    <clipPath id="clippath-12">
      <path class="cls-1" d="M549.13,975.98c-.34.08-.66.17-.98.26-.36.1-.71.21-1.05.34-.07.01-.14.03-.2.07-.24.09-.48.19-.73.3-.2.09-.53.24-.73.34-.18.09-.36.19-.54.28-2.05,1.08-3.86,2.61-5.27,4.53l-2.8,6.34c-.95,4.19-.2,8.5,1.93,12.06.01,0,.02.02.02.03.16.25.31.5.48.74.26.39.53.75.82,1.11.42.51.86,1,1.34,1.46.1.09.2.19.3.29.3.27.6.53.92.78.64.5,1.32.96,2.04,1.37.21.12.44.24.65.35.22.11.44.22.66.32l164.99,73.04h14.08c3.45-1.63,6.35-4.46,8.01-8.22,3.68-8.31-.07-18.02-8.37-21.71h-.03c-5.14-2.29-10.29-4.57-15.43-6.84-3.68-1.63-7.36-3.25-11.04-4.88-9.55-4.21-19.09-8.43-28.63-12.65-4.34-1.92-8.68-3.83-13.03-5.75-5.2-2.3-10.4-4.59-15.6-6.89-4.75-2.1-9.49-4.2-14.24-6.3-4.79-2.12-9.59-4.24-14.38-6.35-9.54-4.21-19.09-8.43-28.63-12.64-3.21-1.41-6.4-2.86-9.6-4.31-1.51-.69-3.03-1.37-4.55-2.05-2.35-1.04-4.73-2.08-7.12-3.06-.41-.17-.81-.35-1.23-.54l-.04-.02c-.53-.32-1.09-.61-1.67-.86-2.15-.95-4.38-1.4-6.58-1.4-1.28,0-2.54.15-3.77.44"/>
    </clipPath>
    <linearGradient id="linear-gradient-17" y1="1080" y2="1080" gradientTransform="translate(536.4021 214938.4525) scale(198.0647 -198.0647)" xlink:href="#linear-gradient"/>
    <mask id="mask-8" x="535.85" y="975.54" width="200.88" height="104.46" maskUnits="userSpaceOnUse">
      <rect class="cls-65" x="535.85" y="975.54" width="200.88" height="104.46"/>
    </mask>
    <linearGradient id="linear-gradient-18" y1="1080" y2="1080" gradientTransform="translate(536.4021 214938.4525) scale(198.0647 -198.0647)" xlink:href="#linear-gradient-2"/>
    <clipPath id="clippath-13">
      <path class="cls-1" d="M529.09,808.63c-2.16.05-4.3.21-6.43.49-4.25.56-8.42,1.58-12.53,3.13-.05.02-.1.04-.15.06-1.32.5-2.63,1.06-3.94,1.68-1.63.78-3.24,1.57-4.81,2.41-2.36,1.26-4.65,2.59-6.85,4.09-1.88,1.28-3.68,2.67-5.41,4.22-.25.22-.49.45-.73.67-.08.07-.16.15-.23.22-.72.69-1.42,1.39-2.11,2.12-.07.07-.14.14-.2.21-.25.27-.5.54-.75.82-.12.14-.25.28-.38.42-.04.05-.09.11-.14.16-.51.58-1.01,1.18-1.5,1.79-1.59,1.98-3.06,4.07-4.39,6.24-3.57,5.83-6.2,12.29-7.84,18.93l-5.26,37.3c-1.26,8.94,4.96,17.22,13.91,18.48,8.95,1.26,17.22-4.97,18.48-13.91.53-3.78,1.05-7.55,1.58-11.33.28-1.88.55-3.77.82-5.65.51-3.52,1.01-7.05,1.54-10.57.31-2.11.64-4.23.97-6.35.09-.56.2-1.12.33-1.67,0-.01,0-.02,0-.04,2.76-14.7,16.17-24.96,31.02-23.86.16,0,.31.02.47.04,10.03.77,19.37,6.64,24.02,16.38,2,4.17,2.98,8.8,2.85,13.42,0,.46-.03.93-.07,1.39l-6.46,45.77c-.14,2.54.29,5,1.21,7.24.07.18.15.35.23.52.61,1.32,1.39,2.57,2.31,3.68,2.56,3.12,6.26,5.32,10.57,5.93,4.33.61,8.51-.49,11.84-2.8.78-.54,1.52-1.15,2.2-1.81.89-.87,1.69-1.85,2.38-2.91.68-1.06,1.25-2.2,1.68-3.42.04-.13.09-.26.14-.39.09-.29.17-.58.25-.87l6.61-46.86c-.02.31-.04.62-.06.92l.16-1.11c.23-.97.5-1.93.85-2.85.23-.64.47-1.27.77-1.89,0,0,.01-.02.02-.02.04-.06.08-.13.12-.21,5.14-11.79,17.66-19.2,31.01-17.32.42.06.83.12,1.23.2.21.04.41.08.62.12.09.02.19.04.28.06.27.06.54.12.79.19.22.05.43.1.64.16.1.03.21.06.32.09.11.03.21.05.32.09,5.16,1.49,9.66,4.33,13.17,8.07h0c2.93,3.11,5.16,6.84,6.52,10.93,0,0,0,0,0,0,1.28,3.88,1.78,8.09,1.3,12.4,0,.01,0,.03,0,.04,0,.04-.94,6.76-.94,6.76l-5.23,37.07c-.47,4.59.97,8.97,3.71,12.3,2.56,3.14,6.28,5.35,10.61,5.97,8.45,1.19,16.32-4.15,18.49-12.18l6.42-45.48c.04-.49.07-.97.09-1.46.28-5.34-.13-10.58-1.17-15.64,0,0,0,0,0-.02-2.15-10.51-6.99-20.19-13.86-28.19-3.22-3.74-6.88-7.12-10.92-10.03-4.16-3-8.72-5.52-13.61-7.45-3.35-1.32-6.86-2.38-10.49-3.13h-.03c-6.42-1.2-13.18-1.42-20.23-.72-2.54.25-5.01.64-7.43,1.18-.01,0-.03,0-.05,0-2.2.54-4.37,1.19-6.48,1.95-1.35.49-2.68,1.02-3.99,1.61-2.91,1.28-5.72,2.79-8.4,4.49,0,0-.02,0-.02.02-.77.52-1.55,1.07-2.31,1.64-.14.07-.27.13-.4.19h0c-.32.22-.63.46-.94.68,0,.01-.01.01-.01.01-.68.56-1.34,1.12-1.99,1.71-.16.15-.33.29-.5.45-2.07-3.36-4.45-6.53-7.12-9.44,0,0-.01-.01-.02-.02-2.26-2.21-4.69-4.26-7.28-6.11-3.62-2.61-7.55-4.84-11.73-6.64-.02,0-.04-.01-.05-.02-1.89-.75-3.82-1.4-5.81-1.98-2.72-.78-5.54-1.39-8.44-1.85-.72-.12-1.45-.22-2.19-.31-1.48-.19-2.95-.34-4.41-.44-1.47-.1-2.92-.16-4.37-.17-.21,0-.42,0-.62,0-.52,0-1.03,0-1.54.02"/>
    </clipPath>
    <linearGradient id="linear-gradient-19" y1="1080" y2="1080" gradientTransform="translate(465.2515 238857.8345) scale(220.3523 -220.3523)" xlink:href="#linear-gradient"/>
    <mask id="mask-9" x="464.15" y="808.61" width="221.65" height="138.55" maskUnits="userSpaceOnUse">
      <rect class="cls-51" x="464.15" y="808.61" width="221.65" height="138.55"/>
    </mask>
    <linearGradient id="linear-gradient-20" y1="1080" y2="1080" gradientTransform="translate(465.2515 238857.8345) scale(220.3523 -220.3523)" xlink:href="#linear-gradient-2"/>
    <clipPath id="clippath-14">
      <path class="cls-1" d="M595.49,716.49l-19.72,73.23c-.04.13-.07.27-.11.39,0,.01,0,.02,0,.03-1.35,7.57,3.31,15.06,10.88,17.1,1.06.29,2.12.44,3.18.49,0,0,0,0,0,0,1.31-.01,2.6-.21,3.83-.56h.03s1.57-.57,1.57-.57h.02s4.71-1.69,4.71-1.69l7.69-2.76h0s48.3-17.32,48.3-17.32l9.26-3.32,3.78-1.36c.28-.14.56-.3.83-.47,6.42-4.02,8.36-12.49,4.34-18.91-3.39-5.42-9.95-7.66-15.78-5.8-.02,0-.03,0-.05.02l-.86.3-34.16,12.25-8.5,3.05-.29.1c-.87.27-1.87.19-2.78-.35-1.28-.77-1.85-2.33-1.47-3.77v-.03c.03-.07.04-.15.06-.22l.28-1.02c.03-.1.05-.19.08-.27.08-.27.15-.55.22-.83.17-.6.33-1.23.49-1.84.54-2.02,1.09-4.03,1.61-6.05,1.64-6.15,3.29-12.3,4.95-18.45,1.28-4.76,2.57-9.52,3.85-14.29,1.94-7.22-2.36-14.65-9.62-16.6-1.19-.32-2.38-.47-3.56-.47-5.99,0-11.47,3.97-13.09,10"/>
    </clipPath>
    <linearGradient id="linear-gradient-21" y1="1080" y2="1080" gradientTransform="translate(575.4276 109576.3044) scale(100.7585 -100.7585)" xlink:href="#linear-gradient"/>
    <mask id="mask-10" x="574.31" y="706.49" width="103.8" height="101.25" maskUnits="userSpaceOnUse">
      <rect class="cls-53" x="574.31" y="706.49" width="103.8" height="101.25"/>
    </mask>
    <linearGradient id="linear-gradient-22" y1="1080" y2="1080" gradientTransform="translate(575.4276 109576.3044) scale(100.7585 -100.7585)" xlink:href="#linear-gradient-2"/>
    <clipPath id="clippath-15">
      <path class="cls-1" d="M581.02,639.46c-6.74,4.36-12.84,9.68-18.07,15.76-3.65,4.24-6.88,8.86-9.64,13.79-1.45,1.79-2.54,3.89-3.13,6.2-.25.99-.41,2.01-.47,3.06-.3,5.02,1.72,9.65,5.14,12.82,2.66,2.48,6.16,4.08,10.07,4.31,2.16.13,4.25-.17,6.18-.83,4.02-1.37,7.36-4.28,9.27-8.07.23-.56.47-1.11.73-1.66.04-.1.08-.19.13-.29.46-.95.95-1.88,1.47-2.78,5.05-9.14,13.32-16.2,23.19-19.72.09-.04.19-.07.28-.11,3.18-1.18,6.52-2.02,9.95-2.48.28-.03.56-.07.83-.09,3.08-.36,6.17-.46,9.27-.41,4.62.07,9.25.48,13.86.82.1,0,.2.01.3.02l55.63,3.31s.02.04.03.05h0c4.69.28,9.38.56,14.06.84,3.64.63,7.31.67,10.92,1.86.41.14.84.28,1.26.43.02,0,.04,0,.06.02,15.71,4.61,27.55,17.8,30.46,33.88.02.05.03.1.03.15.16.74.3,1.48.42,2.23.49,2.95.72,5.92.71,8.83,0,.96-.03,1.92-.09,2.86-.45,7.4-.9,14.8-1.35,22.21-.66,10.8-1.31,21.61-1.97,32.42-.3,5.13-.62,10.26-.92,15.39-.08,1.35-.17,2.7-.25,4.05,0,0,0,.01,0,.01,0,.09,0,.17-.02.26l-.27,4.61c.31,3.69,1.84,7.3,4.6,10.19,6.42,6.72,17.08,6.96,23.79.54,2.51-2.4,4.12-5.4,4.81-8.56,0,0,0-.01,0-.02.11-1.69.21-3.38.31-5.07,1.08-17.27,2.09-34.55,3.11-51.83.22-3.95.45-7.89.69-11.84h0c.26-4.49.53-8.98.79-13.47.02-.46.05-.92.07-1.38v-.03c-.07-2.41-.25-4.79-.52-7.15-1.57-13.47-6.37-26.04-13.63-36.86-4.35-6.47-9.58-12.3-15.52-17.33-13.32-11.27-30.27-18.48-49.04-19.6l-36.87-2.19c-5.32-.3-10.63-.62-15.94-.95l-24.29-1.44c-1.7-.1-3.38-.15-5.06-.15-16.62,0-32.23,4.9-45.36,13.4"/>
    </clipPath>
    <linearGradient id="linear-gradient-23" y1="1080" y2="1080" gradientTransform="translate(549.6854 257290.2242) scale(237.5675 -237.5675)" xlink:href="#linear-gradient"/>
    <mask id="mask-11" x="549.41" y="626.06" width="237.84" height="184.31" maskUnits="userSpaceOnUse">
      <rect class="cls-56" x="549.41" y="626.06" width="237.84" height="184.31"/>
    </mask>
    <linearGradient id="linear-gradient-24" y1="1080" y2="1080" gradientTransform="translate(549.6854 257290.2242) scale(237.5675 -237.5675)" xlink:href="#linear-gradient-2"/>
    <clipPath id="clippath-16">
      <path class="cls-1" d="M792.22,36.04c-7.6,4.98-9.72,15.19-4.74,22.79l99.14,151.26c.14.21.27.4.42.6.15.19.3.39.45.58.52.64,1.09,1.24,1.68,1.79.3.28.61.53.92.78.11.09.22.17.33.25.54.39,1.09.75,1.66,1.08.4.23.81.44,1.23.63.27.13.54.24.81.35.01,0,.02,0,.03.01,3.85,1.52,8.23,1.56,12.21-.06l5.79-3.8c1.66-1.7,2.88-3.74,3.61-5.94.07-.19.13-.39.19-.58.07-.21.17-.56.22-.78.06-.26.12-.51.18-.77.02-.07.03-.14.03-.21.07-.36.12-.72.16-1.09.04-.33.07-.66.1-1.01.24-3.43-.59-6.95-2.63-10.06-.34-.52-.72-1.03-1.12-1.5l-.02-.04c-.26-.39-.49-.75-.73-1.13-1.36-2.2-2.77-4.37-4.18-6.53-.92-1.39-1.84-2.77-2.76-4.15-1.95-2.92-3.9-5.83-5.81-8.77-5.71-8.72-11.42-17.46-17.13-26.19-2.86-4.38-5.73-8.77-8.6-13.15-2.84-4.34-5.68-8.68-8.53-13.03-3.11-4.76-6.22-9.52-9.33-14.27-2.6-3.97-5.2-7.95-7.79-11.92-5.72-8.73-11.43-17.46-17.14-26.2-2.21-3.36-4.41-6.73-6.61-10.1-3.08-4.7-6.16-9.41-9.25-14.11l-.02-.03c-3.16-4.81-8.41-7.42-13.77-7.42-3.1,0-6.23.87-9.01,2.7"/>
    </clipPath>
    <linearGradient id="linear-gradient-25" y1="1080" y2="1080" gradientTransform="translate(784.7794 142603.0468) scale(131.9238 -131.9238)" xlink:href="#linear-gradient"/>
    <mask id="mask-12" x="782.49" y="33.34" width="134.41" height="184.39" maskUnits="userSpaceOnUse">
      <rect class="cls-58" x="782.49" y="33.34" width="134.41" height="184.39"/>
    </mask>
    <linearGradient id="linear-gradient-26" y1="1080" y2="1080" gradientTransform="translate(784.7794 142603.0468) scale(131.9238 -131.9238)" xlink:href="#linear-gradient-2"/>
    <clipPath id="clippath-17">
      <path class="cls-1" d="M671.99,163.91c-4.92.76-9.72,2.11-14.29,3.99-9.75,4.01-18.46,10.44-25.15,18.84,0,0,0,.01,0,.02-3.22,4.04-5.97,8.52-8.14,13.41-.2.45-.39.89-.58,1.34l-14.92,43.44c-1.71,8.14,2.88,16.47,10.95,19.24,4.14,1.42,8.45,1.13,12.16-.5,3.95-1.73,7.22-4.98,8.89-9.28l12.16-35.4s2.21-6.42,2.23-6.45c0-.01,0-.02.02-.04,1.53-4.06,3.88-7.58,6.79-10.46,0,0,0,0,0,0,3.06-3.03,6.75-5.34,10.77-6.78h0c4.82-1.74,10.12-2.22,15.4-1.22.11.02.22.04.32.07.11.02.22.04.33.06.22.04.43.09.65.15.26.06.53.13.79.2.09.02.19.04.28.07.2.06.41.11.61.18.4.12.79.24,1.19.38,12.76,4.38,20.54,16.66,19.78,29.5,0,.09,0,.17.01.25,0,.01,0,.02,0,.03-.02.68-.08,1.35-.17,2.03-.11.98-.3,1.96-.54,2.93l-.36,1.06c.12-.28.24-.56.36-.84l-15.37,44.76c-.07.29-.12.58-.17.88-.02.14-.04.27-.06.41-.16,1.29-.18,2.56-.05,3.82.13,1.25.4,2.49.8,3.67.31.9.69,1.78,1.14,2.61,1.93,3.57,5.15,6.45,9.28,7.87,4.12,1.41,8.41,1.13,12.11-.49,1.33-.58,2.59-1.33,3.73-2.23.15-.12.3-.24.44-.36,1.84-1.58,3.34-3.58,4.37-5.9l15.01-43.72c.18-.43.36-.86.57-1.27,1.98-4.18,4.95-7.86,8.63-10.67,8.57-6.57,19.56-7.56,28.84-3.7.14.06.29.11.43.18,13.73,5.76,21.02,20.98,16.82,35.34,0,.01,0,.02,0,.04-.14.55-.29,1.1-.46,1.64-.66,2.03-1.34,4.07-2.02,6.09-1.13,3.38-2.28,6.75-3.42,10.12-.62,1.8-1.23,3.6-1.83,5.41-1.24,3.6-2.48,7.21-3.73,10.81-2.93,8.54,1.61,17.85,10.16,20.78,8.55,2.93,17.85-1.62,20.79-10.16l12.23-35.63c1.55-6.67,2.14-13.61,1.6-20.43-.2-2.54-.56-5.07-1.08-7.56-.16-.77-.33-1.53-.53-2.28-.02-.07-.03-.14-.05-.2-.05-.18-.09-.36-.14-.54-.1-.36-.2-.72-.3-1.07-.03-.09-.06-.19-.08-.28-.29-.96-.59-1.9-.92-2.85-.04-.1-.07-.21-.11-.3-.11-.31-.22-.62-.35-.93-.84-2.17-1.82-4.23-2.91-6.22-1.28-2.33-2.71-4.56-4.25-6.75-1.02-1.46-2.09-2.9-3.2-4.33-.88-1.14-1.8-2.24-2.75-3.28-.03-.04-.07-.08-.11-.12-2.96-3.25-6.21-6.06-9.75-8.48-1.77-1.22-3.6-2.33-5.5-3.36-.64-.34-1.27-.67-1.92-1-1.29-.65-2.62-1.26-3.97-1.83-1.35-.57-2.73-1.11-4.13-1.61-.7-.26-1.4-.5-2.1-.72-2.79-.91-5.58-1.64-8.36-2.18-2.03-.39-4.05-.69-6.07-.87-.02,0-.04,0-.06,0-4.54-.29-9.05-.08-13.47.6-3.14.48-6.24,1.2-9.26,2.14,0,0-.02,0-.03,0-3.7,1.38-7.27,3.12-10.63,5.18-.08-.21-.16-.41-.24-.62-.31-.81-.65-1.63-1-2.43,0,0,0,0,0-.02-.18-.34-.35-.69-.53-1.03h0c-.09-.11-.18-.22-.27-.35-.42-.85-.86-1.69-1.32-2.51,0-.01,0-.02-.01-.03-1.61-2.73-3.43-5.35-5.45-7.81-.9-1.11-1.85-2.19-2.83-3.24-1.54-1.64-3.17-3.2-4.89-4.68-.02,0-.03-.02-.04-.03-1.91-1.58-3.93-3.04-6.08-4.42-5.96-3.82-12.08-6.69-18.35-8.54h-.03c-3.58-.99-7.18-1.64-10.77-1.98-1.97-.19-3.93-.28-5.89-.28-3.24,0-6.46.25-9.62.74"/>
    </clipPath>
    <linearGradient id="linear-gradient-27" y1="1080" y2="1080" gradientTransform="translate(608.5642 241042.3375) scale(222.965 -222.965)" xlink:href="#linear-gradient"/>
    <mask id="mask-13" x="607.21" y="163.17" width="224.66" height="155.96" maskUnits="userSpaceOnUse">
      <rect class="cls-71" x="607.21" y="163.17" width="224.66" height="155.96"/>
    </mask>
    <linearGradient id="linear-gradient-28" y1="1080" y2="1080" gradientTransform="translate(608.5642 241042.3375) scale(222.965 -222.965)" xlink:href="#linear-gradient-2"/>
    <clipPath id="clippath-18">
      <path class="cls-1" d="M824.19,387.39c-7.25,1.95-11.56,9.39-9.62,16.6,1.29,4.77,2.58,9.53,3.85,14.29,1.66,6.15,3.31,12.3,4.95,18.45.53,2.02,1.07,4.03,1.61,6.04.16.61.33,1.24.49,1.84.07.28.14.56.22.83.02.08.05.17.08.27l.28,1.02c.02.07.03.15.05.22v.03c.39,1.44-.18,3-1.46,3.77-.91.54-1.91.62-2.78.35l-.29-.1-8.5-3.05-34.16-12.25-.86-.3s-.03-.01-.05-.02c-5.82-1.85-12.38.39-15.78,5.8-4.02,6.42-2.08,14.89,4.34,18.92.27.17.55.33.83.47l3.78,1.36,9.26,3.32,48.3,17.32h0s7.69,2.76,7.69,2.76l4.71,1.68h.02s1.57.57,1.57.57h.03c1.23.37,2.52.56,3.83.58,0,0,0,0,0,0,1.06-.05,2.12-.21,3.18-.49,7.57-2.04,12.23-9.53,10.87-17.1,0,0,0-.02,0-.03-.03-.13-.07-.26-.11-.39l-19.72-73.23c-1.62-6.03-7.1-10-13.09-10-1.17,0-2.37.15-3.56.47"/>
    </clipPath>
    <linearGradient id="linear-gradient-29" y1="1080" y2="1080" gradientTransform="translate(760.1423 109256.7228) scale(100.7585 -100.7585)" xlink:href="#linear-gradient"/>
    <mask id="mask-14" x="758.22" y="386.91" width="103.8" height="101.25" maskUnits="userSpaceOnUse">
      <rect class="cls-74" x="758.22" y="386.91" width="103.8" height="101.25"/>
    </mask>
    <linearGradient id="linear-gradient-30" y1="1080" y2="1080" gradientTransform="translate(760.1423 109256.7228) scale(100.7585 -100.7585)" xlink:href="#linear-gradient-2"/>
    <clipPath id="clippath-19">
      <path class="cls-1" d="M559.47,301.15c-1.05.06-2.08.22-3.06.48-2.31.59-4.42,1.68-6.2,3.12-4.93,2.75-9.55,5.98-13.79,9.64-6.09,5.23-11.41,11.33-15.76,18.07-9.36,14.45-14.35,31.91-13.25,50.41l1.44,24.29c.33,5.32.65,10.63.95,15.94l2.19,36.87c1.12,18.77,8.33,35.72,19.6,49.04,5.03,5.95,10.87,11.18,17.33,15.52,10.81,7.26,23.39,12.05,36.86,13.63,2.36.27,4.74.45,7.15.52h.03c.47-.02.93-.04,1.38-.07,4.49-.27,8.98-.53,13.47-.79h0c3.95-.23,7.89-.47,11.84-.69,17.28-1.02,34.56-2.03,51.83-3.11,1.69-.1,3.38-.21,5.07-.31,0,0,.01,0,.02,0,3.16-.69,6.16-2.3,8.56-4.81,6.42-6.71,6.18-17.36-.53-23.79-2.89-2.76-6.5-4.28-10.19-4.6l-4.61.27c-.09,0-.17,0-.26.02,0,0,0,0-.01,0-1.35.08-2.7.17-4.05.25-5.12.3-10.26.61-15.39.92-10.81.66-21.62,1.31-32.42,1.97-7.4.45-14.8.9-22.21,1.35-.94.05-1.9.09-2.86.09-2.91.02-5.88-.22-8.83-.71-.75-.12-1.49-.26-2.23-.42-.05,0-.1,0-.15-.03-16.08-2.91-29.27-14.75-33.88-30.46,0-.02,0-.04-.02-.06-.16-.42-.29-.84-.43-1.26-1.19-3.61-1.23-7.28-1.86-10.92-.28-4.69-.56-9.37-.85-14.07h0s-.03-.02-.05-.03l-3.31-55.64c0-.1-.02-.2-.02-.3-.35-4.61-.75-9.24-.82-13.86-.05-3.1.05-6.19.41-9.27.03-.27.07-.55.09-.83.46-3.43,1.3-6.76,2.48-9.95.03-.09.06-.19.11-.28,3.52-9.87,10.58-18.14,19.72-23.19.9-.51,1.83-1.01,2.78-1.47.09-.05.19-.09.28-.13.55-.26,1.1-.49,1.66-.73,3.79-1.9,6.7-5.25,8.07-9.27.66-1.93.96-4.02.83-6.18-.23-3.91-1.83-7.41-4.31-10.07-2.97-3.19-7.2-5.17-11.84-5.17-.33,0-.66,0-.99.03"/>
    </clipPath>
    <linearGradient id="linear-gradient-31" y1="1080" y2="1080" gradientTransform="translate(507.2524 197574.2413) scale(182.5503 -182.5503)" xlink:href="#linear-gradient"/>
    <mask id="mask-15" x="506.3" y="301.12" width="185.26" height="237.57" maskUnits="userSpaceOnUse">
      <rect class="cls-60" x="506.3" y="301.12" width="185.26" height="237.57"/>
    </mask>
    <linearGradient id="linear-gradient-32" y1="1080" y2="1080" gradientTransform="translate(507.2524 197574.2413) scale(182.5503 -182.5503)" xlink:href="#linear-gradient-2"/>
    <clipPath id="clippath-20">
      <path class="cls-1" d="M272.17,255.16c-.57.25-1.14.54-1.67.86l-.04.02c-.43.19-.82.37-1.23.54-2.39.98-4.76,2.02-7.12,3.06-1.52.68-3.04,1.36-4.55,2.05-3.2,1.45-6.39,2.9-9.6,4.31-9.53,4.21-19.09,8.43-28.63,12.64-4.79,2.11-9.58,4.23-14.38,6.35-4.75,2.1-9.5,4.2-14.24,6.3-5.2,2.29-10.4,4.59-15.6,6.89-4.34,1.92-8.68,3.83-13.03,5.75-9.54,4.22-19.08,8.44-28.64,12.65-3.68,1.63-7.36,3.26-11.04,4.88-5.14,2.28-10.29,4.55-15.43,6.83l-.03.02c-8.3,3.69-12.05,13.4-8.37,21.71,3.68,8.31,13.4,12.06,21.71,8.39l165.37-73.22c.22-.1.44-.2.66-.32.21-.11.44-.23.65-.35.72-.41,1.4-.87,2.04-1.37.32-.25.62-.51.92-.78.11-.1.21-.19.3-.28.48-.46.92-.95,1.34-1.46.29-.36.57-.72.82-1.11.17-.24.33-.49.48-.74,0-.01,0-.02.02-.03,2.12-3.55,2.88-7.87,1.93-12.06l-2.8-6.34c-1.41-1.92-3.22-3.45-5.27-4.53-.18-.1-.36-.19-.54-.29-.2-.1-.53-.25-.73-.34-.25-.1-.49-.21-.73-.3-.06-.03-.13-.05-.2-.07-.34-.13-.69-.24-1.05-.34-.32-.09-.64-.18-.98-.26-1.23-.29-2.49-.44-3.77-.44-2.2,0-4.43.45-6.58,1.4"/>
    </clipPath>
    <linearGradient id="linear-gradient-33" y1="1079.99" y2="1079.99" gradientTransform="translate(97.1861 214216.6714) scale(198.0647 -198.0647)" xlink:href="#linear-gradient"/>
    <mask id="mask-16" x="94.92" y="253.76" width="200.88" height="108.31" maskUnits="userSpaceOnUse">
      <rect class="cls-61" x="94.92" y="253.76" width="200.88" height="108.31"/>
    </mask>
    <linearGradient id="linear-gradient-34" y1="1079.99" y2="1079.99" gradientTransform="translate(97.1861 214216.6714) scale(198.0647 -198.0647)" xlink:href="#linear-gradient-2"/>
    <clipPath id="clippath-21">
      <path class="cls-1" d="M247.75,386.91c-1.45,0-2.9.07-4.37.17-1.46.1-2.94.25-4.41.44-.74.09-1.47.19-2.19.31-2.9.46-5.72,1.07-8.44,1.85-1.99.57-3.92,1.22-5.81,1.98-.02.01-.04.02-.05.02-4.18,1.81-8.1,4.04-11.73,6.64-2.59,1.85-5.02,3.9-7.28,6.11,0,0-.01.01-.02.02-2.67,2.91-5.06,6.08-7.12,9.44-.17-.15-.33-.29-.49-.45-.65-.58-1.32-1.15-1.99-1.71,0,0,0,0-.01-.01-.31-.22-.62-.46-.94-.68h0c-.13-.06-.26-.11-.4-.19-.76-.57-1.54-1.12-2.31-1.64,0-.01-.02-.02-.02-.02-2.67-1.7-5.48-3.21-8.4-4.49-1.31-.58-2.64-1.11-3.99-1.6-2.11-.76-4.27-1.42-6.48-1.96-.02,0-.04,0-.05,0-2.42-.54-4.89-.93-7.43-1.18-7.05-.7-13.81-.48-20.23.72h-.03c-3.64.75-7.14,1.81-10.49,3.13-4.89,1.93-9.45,4.45-13.61,7.45-4.04,2.92-7.71,6.29-10.92,10.03-6.87,8-11.71,17.68-13.86,28.19,0,.01,0,.02,0,.02-1.03,5.06-1.45,10.3-1.17,15.64.03.49.06.97.09,1.45l6.42,45.47c2.17,8.03,10.04,13.37,18.49,12.18,4.33-.61,8.04-2.83,10.61-5.97,2.74-3.34,4.18-7.71,3.71-12.3l-5.23-37.07s-.94-6.72-.94-6.75c0-.02,0-.03,0-.04-.48-4.31.02-8.52,1.3-12.4,0,0,0,0,0,0,1.35-4.09,3.59-7.82,6.52-10.93h0c3.51-3.74,8.01-6.58,13.17-8.07.11-.03.21-.06.32-.09.1-.03.21-.06.32-.09.21-.06.42-.11.64-.16.26-.07.53-.13.79-.18.09-.02.19-.04.28-.06.21-.04.41-.09.62-.12.41-.08.82-.14,1.23-.2,13.35-1.88,25.87,5.53,31.01,17.32.05.08.09.15.12.21,0,0,.01.02.02.02.29.62.54,1.24.77,1.89.35.92.62,1.89.85,2.85l.16,1.11c-.02-.3-.04-.61-.06-.91l6.61,46.86c.07.29.15.58.25.87.04.13.09.26.13.39.44,1.22,1,2.36,1.68,3.42.68,1.06,1.48,2.04,2.38,2.91.68.66,1.42,1.27,2.2,1.81,3.34,2.31,7.51,3.41,11.84,2.8,4.31-.61,8.01-2.81,10.57-5.92.93-1.12,1.7-2.36,2.31-3.69.08-.17.16-.35.23-.52.92-2.24,1.36-4.7,1.21-7.24l-6.46-45.77c-.04-.46-.06-.93-.07-1.39-.13-4.62.85-9.25,2.85-13.42,4.66-9.74,14-15.61,24.03-16.38.15-.02.31-.03.47-.04,14.85-1.1,28.25,9.16,31.02,23.86,0,.01,0,.02,0,.04.13.55.24,1.11.33,1.67.33,2.11.65,4.23.97,6.35.53,3.52,1.03,7.05,1.55,10.57.27,1.88.54,3.77.82,5.65.53,3.78,1.05,7.55,1.58,11.33,1.26,8.94,9.54,15.17,18.48,13.91,8.95-1.26,15.17-9.54,13.91-18.48l-5.26-37.3c-1.64-6.65-4.27-13.1-7.84-18.93-1.33-2.18-2.8-4.27-4.39-6.24-.49-.61-.99-1.21-1.5-1.79-.04-.05-.09-.11-.14-.16-.12-.14-.25-.28-.38-.42-.25-.27-.51-.55-.75-.82-.06-.07-.14-.14-.2-.21-.69-.72-1.39-1.43-2.11-2.12-.08-.07-.16-.15-.23-.22-.24-.23-.48-.45-.73-.67-1.73-1.55-3.54-2.94-5.42-4.22-2.19-1.49-4.48-2.83-6.85-4.09-1.57-.84-3.18-1.63-4.81-2.41-1.31-.62-2.62-1.18-3.94-1.68-.05-.02-.1-.04-.15-.06-4.11-1.56-8.29-2.58-12.53-3.14-2.13-.28-4.27-.44-6.43-.49-.51,0-1.03-.02-1.54-.02-.21,0-.41,0-.62,0"/>
    </clipPath>
    <linearGradient id="linear-gradient-35" x1="0" y1="1080" x2="1" y2="1080" gradientTransform="translate(93.4016 238436.1351) scale(220.3523 -220.3523)" xlink:href="#linear-gradient"/>
    <mask id="mask-17" x="93.21" y="386.91" width="221.65" height="138.55" maskUnits="userSpaceOnUse">
      <rect class="cls-67" x="93.21" y="386.91" width="221.65" height="138.55"/>
    </mask>
    <linearGradient id="linear-gradient-36" x1="0" y1="1080" x2="1" y2="1080" gradientTransform="translate(93.4016 238436.1351) scale(220.3523 -220.3523)" xlink:href="#linear-gradient-2"/>
    <clipPath id="clippath-22">
      <path class="cls-1" d="M401.96,240.6c-7.25,1.95-11.56,9.38-9.62,16.6,1.29,4.77,2.58,9.53,3.86,14.29,1.66,6.15,3.31,12.3,4.95,18.45.53,2.02,1.07,4.03,1.61,6.05.16.62.33,1.24.49,1.84.07.28.15.56.22.83.02.08.05.17.08.27l.27,1.02c.02.07.03.15.06.22v.03c.39,1.44-.18,3-1.46,3.77-.91.54-1.91.62-2.78.35l-.29-.1-8.5-3.05-34.17-12.25-.86-.3s-.03-.01-.05-.02c-5.82-1.85-12.38.39-15.78,5.8-4.02,6.42-2.08,14.89,4.34,18.92.27.17.55.33.83.47l3.78,1.36,9.26,3.32,48.3,17.32h0s7.69,2.77,7.69,2.77l4.71,1.68h.01s1.57.57,1.57.57h.03c1.23.37,2.52.56,3.83.58,0,0,0,0,0,0,1.06-.05,2.12-.21,3.18-.49,7.57-2.04,12.23-9.53,10.88-17.1,0,0,0-.01,0-.03-.03-.13-.07-.26-.11-.39l-19.72-73.23c-1.63-6.03-7.1-10-13.09-10-1.17,0-2.37.15-3.56.47"/>
    </clipPath>
    <linearGradient id="linear-gradient-37" y1="1080" y2="1080" gradientTransform="translate(337.9131 109109.9366) scale(100.7585 -100.7585)" xlink:href="#linear-gradient"/>
    <mask id="mask-18" x="335.99" y="240.12" width="103.8" height="101.25" maskUnits="userSpaceOnUse">
      <rect class="cls-75" x="335.99" y="240.12" width="103.8" height="101.25"/>
    </mask>
    <linearGradient id="linear-gradient-38" y1="1080" y2="1080" gradientTransform="translate(337.9131 109109.9366) scale(100.7585 -100.7585)" xlink:href="#linear-gradient-2"/>
    <clipPath id="clippath-23">
      <path class="cls-1" d="M328.65,11.01l-24.29,1.44c-5.32.33-10.63.65-15.94.95l-36.87,2.19c-18.77,1.12-35.72,8.33-49.04,19.6-5.95,5.03-11.18,10.87-15.52,17.33-7.26,10.81-12.06,23.38-13.63,36.86-.28,2.36-.45,4.74-.53,7.15v.03c.02.46.04.93.07,1.38.27,4.49.53,8.98.79,13.47h0c.24,3.95.47,7.9.7,11.85,1.02,17.28,2.03,34.56,3.11,51.83.1,1.69.21,3.38.31,5.07,0,0,0,.01,0,.02.69,3.16,2.3,6.16,4.81,8.56,6.71,6.42,17.36,6.18,23.79-.54,2.76-2.89,4.28-6.5,4.6-10.19l-.27-4.61c0-.09,0-.17-.02-.26,0,0,0,0,0,0-.08-1.35-.17-2.7-.25-4.05-.3-5.13-.61-10.26-.92-15.39-.66-10.81-1.31-21.61-1.97-32.42-.45-7.4-.9-14.8-1.35-22.2-.06-.94-.09-1.9-.09-2.86-.02-2.91.22-5.88.71-8.83.12-.74.26-1.49.42-2.23,0-.05,0-.1.03-.15,2.91-16.08,14.75-29.27,30.46-33.88.02,0,.04,0,.06-.02.42-.15.84-.29,1.25-.43,3.62-1.19,7.28-1.23,10.92-1.86,4.69-.28,9.37-.56,14.07-.85h0s.02-.02.03-.04l55.64-3.31c.1,0,.2-.02.3-.02,4.61-.35,9.24-.75,13.86-.82,3.1-.05,6.19.05,9.27.41.27.03.55.07.83.09,3.43.46,6.77,1.3,9.95,2.48.09.03.19.06.28.11,9.87,3.52,18.14,10.58,23.19,19.72.51.9,1,1.83,1.46,2.78.05.09.09.19.13.28.26.55.49,1.1.73,1.66,1.9,3.79,5.25,6.7,9.27,8.07,1.93.65,4.02.96,6.18.83,3.91-.23,7.41-1.83,10.07-4.31,3.42-3.17,5.44-7.8,5.14-12.82-.06-1.05-.22-2.08-.48-3.06-.59-2.31-1.68-4.41-3.12-6.2-2.75-4.93-5.99-9.55-9.64-13.79-5.23-6.09-11.33-11.41-18.07-15.76-13.12-8.5-28.74-13.4-45.36-13.4-1.68,0-3.36.05-5.06.15"/>
    </clipPath>
    <linearGradient id="linear-gradient-39" x1="0" y1="1080" x2="1" y2="1080" gradientTransform="translate(172.8379 256675.0269) scale(237.5675 -237.5675)" xlink:href="#linear-gradient"/>
    <mask id="mask-19" x="172.84" y="10.86" width="237.84" height="184.31" maskUnits="userSpaceOnUse">
      <rect class="cls-76" x="172.84" y="10.86" width="237.84" height="184.31"/>
    </mask>
    <linearGradient id="linear-gradient-40" x1="0" y1="1080" x2="1" y2="1080" gradientTransform="translate(172.8379 256675.0269) scale(237.5675 -237.5675)" xlink:href="#linear-gradient-2"/>
    <clipPath id="clippath-24">
      <rect class="cls-1" x="37.15" y="15.38" width="1920" height="1080"/>
    </clipPath>
  </defs>
  <g id="Layer_1-2" data-name="Layer 1">
    <g class="cls-87">
      <g class="cls-37">
        <g class="cls-40">
          <g class="cls-38">
            <g class="cls-39">
              <g class="cls-3">
                <rect class="cls-11" x="-503.74" y="-2136.12" width="2813.85" height="2819.41" transform="translate(793.49 427.44) rotate(-45.76)"/>
              </g>
            </g>
          </g>
        </g>
        <g class="cls-45">
          <g class="cls-19">
            <rect class="cls-9" x="455.23" y="586.79" width="90.21" height="100.12"/>
          </g>
        </g>
        <g class="cls-42">
          <g class="cls-13">
            <rect class="cls-7" x="65.69" y="796.13" width="94.51" height="81.51"/>
          </g>
        </g>
        <g class="cls-41">
          <g class="cls-14">
            <rect class="cls-4" x="348.51" y="951.08" width="94.51" height="81.51"/>
          </g>
        </g>
        <g class="cls-44">
          <g class="cls-15">
            <rect class="cls-47" x="46.82" y="587.51" width="134.41" height="184.39"/>
          </g>
        </g>
        <g class="cls-43">
          <g class="cls-16">
            <rect class="cls-49" x="172.5" y="779.68" width="224.66" height="155.96"/>
          </g>
        </g>
        <g class="cls-27">
          <g class="cls-18">
            <rect class="cls-52" x="101.7" y="941.08" width="103.81" height="101.25"/>
          </g>
        </g>
        <g class="cls-24">
          <g class="cls-17">
            <rect class="cls-64" x="244.88" y="478.19" width="185.26" height="237.57"/>
          </g>
        </g>
        <g class="cls-31">
          <g class="cls-21">
            <rect class="cls-66" x="535.85" y="975.54" width="200.88" height="104.46"/>
          </g>
        </g>
        <g class="cls-29">
          <g class="cls-20">
            <rect class="cls-54" x="464.15" y="808.61" width="221.65" height="138.55"/>
          </g>
        </g>
        <g class="cls-30">
          <g class="cls-77">
            <rect class="cls-55" x="574.31" y="706.49" width="103.8" height="101.25"/>
          </g>
        </g>
        <g class="cls-28">
          <g class="cls-80">
            <rect class="cls-72" x="549.41" y="626.06" width="237.84" height="184.31"/>
          </g>
        </g>
        <g class="cls-25">
          <g class="cls-84">
            <rect class="cls-73" x="782.49" y="33.34" width="134.41" height="184.39"/>
          </g>
        </g>
        <g class="cls-22">
          <g class="cls-82">
            <rect class="cls-57" x="607.21" y="163.17" width="224.66" height="155.96"/>
          </g>
        </g>
        <g class="cls-26">
          <g class="cls-78">
            <rect class="cls-62" x="758.22" y="386.91" width="103.8" height="101.25"/>
          </g>
        </g>
        <g class="cls-23">
          <g class="cls-86">
            <rect class="cls-59" x="506.3" y="301.12" width="185.26" height="237.57"/>
          </g>
        </g>
        <g class="cls-32">
          <g class="cls-81">
            <rect class="cls-68" x="94.92" y="253.76" width="200.88" height="108.31"/>
          </g>
        </g>
        <g class="cls-33">
          <g class="cls-85">
            <rect class="cls-69" x="93.21" y="386.91" width="221.65" height="138.55"/>
          </g>
        </g>
        <g class="cls-34">
          <g class="cls-79">
            <rect class="cls-70" x="335.99" y="240.12" width="103.8" height="101.25"/>
          </g>
        </g>
        <g class="cls-35">
          <g class="cls-83">
            <rect class="cls-46" x="172.84" y="10.86" width="237.84" height="184.31"/>
          </g>
        </g>
        <g class="cls-36">
          <path class="cls-2" d="M1211.95,605.58c7.6,4.98,9.72,15.18,4.74,22.79l-99.14,151.26c-.14.21-.27.4-.42.6-.15.19-.3.39-.45.59-.52.64-1.09,1.24-1.68,1.79-.3.28-.61.53-.92.78-.11.09-.22.17-.33.25-.54.39-1.09.75-1.66,1.08-.4.23-.81.44-1.23.63-.27.13-.54.24-.81.35-.01,0-.02,0-.03.01-3.85,1.52-8.23,1.56-12.21-.06l-5.8-3.8c-1.66-1.7-2.88-3.74-3.61-5.94-.07-.19-.13-.38-.19-.58-.07-.21-.17-.56-.22-.78-.06-.26-.12-.52-.18-.77-.02-.07-.03-.14-.03-.21-.07-.36-.12-.72-.16-1.09-.04-.33-.07-.66-.1-1.01-.24-3.43.59-6.95,2.63-10.06.34-.52.72-1.03,1.12-1.5l.03-.04c.26-.39.49-.75.73-1.13,1.36-2.2,2.77-4.37,4.18-6.52.92-1.39,1.83-2.77,2.76-4.15,1.95-2.92,3.9-5.83,5.81-8.77,5.71-8.72,11.42-17.46,17.13-26.19,2.86-4.38,5.73-8.77,8.6-13.15,2.84-4.34,5.69-8.69,8.53-13.03,3.11-4.76,6.22-9.52,9.33-14.27,2.6-3.97,5.2-7.95,7.79-11.92,5.72-8.73,11.43-17.45,17.14-26.2,2.21-3.36,4.41-6.73,6.61-10.1,3.08-4.7,6.16-9.41,9.25-14.11l.02-.03c4.99-7.59,15.18-9.71,22.78-4.73Z"/>
          <path class="cls-2" d="M1420.98,833.39l14.92,43.44c1.71,8.14-2.88,16.47-10.95,19.24-4.14,1.42-8.45,1.13-12.16-.5-3.95-1.73-7.22-4.98-8.89-9.28l-12.16-35.4s-2.21-6.41-2.23-6.45c0-.01,0-.02-.02-.04-1.53-4.06-3.88-7.58-6.79-10.46,0,0,0,0,0,0-3.06-3.03-6.75-5.34-10.77-6.78h0c-4.82-1.74-10.12-2.23-15.4-1.22-.11.02-.22.04-.32.07-.11.02-.22.04-.32.06-.22.04-.43.09-.64.15-.26.06-.53.13-.79.2-.09.02-.19.04-.28.07-.2.06-.41.11-.61.17-.4.12-.79.24-1.19.38-12.76,4.38-20.54,16.66-19.78,29.5,0,.09,0,.17-.01.25,0,0,0,.02,0,.03.02.69.08,1.35.17,2.03.11.98.3,1.96.54,2.93l.36,1.06c-.12-.28-.24-.56-.36-.84l15.37,44.76c.07.29.12.59.17.88.02.14.04.27.06.41.16,1.29.18,2.56.05,3.81-.13,1.25-.4,2.49-.8,3.67-.31.9-.69,1.77-1.14,2.61-1.93,3.57-5.15,6.45-9.28,7.87-4.12,1.41-8.41,1.13-12.11-.48-1.33-.58-2.59-1.33-3.73-2.24-.15-.12-.3-.24-.44-.36-1.84-1.58-3.34-3.57-4.36-5.9l-15.01-43.72c-.18-.43-.37-.86-.57-1.27-1.98-4.18-4.95-7.86-8.63-10.67-8.57-6.57-19.56-7.56-28.84-3.69-.14.06-.29.11-.43.18-13.73,5.75-21.02,20.98-16.82,35.34,0,.01,0,.02,0,.03.14.55.29,1.1.46,1.64.66,2.03,1.33,4.07,2.02,6.09,1.13,3.38,2.28,6.75,3.42,10.12.62,1.8,1.22,3.6,1.83,5.4,1.24,3.6,2.49,7.21,3.73,10.81,2.93,8.54-1.61,17.85-10.16,20.78-8.55,2.94-17.85-1.61-20.78-10.16l-12.23-35.63c-1.55-6.67-2.14-13.61-1.6-20.43.2-2.54.56-5.07,1.08-7.56.16-.76.33-1.52.53-2.28.02-.07.03-.14.05-.2.05-.18.09-.36.14-.54.1-.36.2-.72.3-1.07.03-.09.06-.19.08-.28.29-.96.59-1.9.92-2.85.04-.1.07-.2.11-.3.11-.31.22-.62.35-.93.84-2.17,1.81-4.23,2.91-6.22,1.28-2.33,2.71-4.56,4.25-6.75,1.02-1.46,2.09-2.9,3.2-4.33.88-1.14,1.8-2.24,2.75-3.29.04-.04.07-.08.11-.12,2.96-3.25,6.21-6.06,9.75-8.48,1.77-1.22,3.6-2.33,5.5-3.36.64-.34,1.28-.67,1.93-.99,1.29-.65,2.62-1.26,3.97-1.83,1.35-.57,2.73-1.11,4.13-1.61.7-.26,1.4-.5,2.09-.72,2.8-.91,5.58-1.64,8.36-2.18,2.03-.39,4.05-.69,6.07-.87.02,0,.04,0,.06,0,4.54-.29,9.05-.08,13.46.6,3.15.48,6.24,1.2,9.26,2.14,0,0,.02,0,.03,0,3.7,1.38,7.27,3.12,10.63,5.18.08-.21.16-.41.24-.62.31-.82.65-1.63,1-2.43,0,0,0,0,0-.02.18-.34.35-.69.53-1.03h0c.09-.11.18-.22.27-.35.42-.85.86-1.69,1.32-2.51,0-.01,0-.02.01-.03,1.61-2.73,3.43-5.35,5.45-7.81.9-1.11,1.85-2.19,2.83-3.24,1.54-1.64,3.17-3.2,4.89-4.68.02,0,.03-.02.04-.03,1.91-1.58,3.94-3.04,6.08-4.42,5.96-3.82,12.09-6.69,18.35-8.54h.03c3.58-.99,7.18-1.64,10.77-1.98,5.24-.5,10.44-.32,15.51.47,4.92.76,9.72,2.11,14.28,3.99,9.75,4.01,18.46,10.44,25.15,18.84,0,0,0,.01,0,.02,3.21,4.04,5.96,8.52,8.14,13.41.2.45.39.89.58,1.34Z"/>
          <path class="cls-2" d="M1241.93,1010.73c4.02,6.42,2.08,14.89-4.34,18.92-.27.17-.55.33-.83.47l-3.78,1.36-9.26,3.32-48.3,17.32h0s-7.69,2.76-7.69,2.76l-4.71,1.69h-.02s-1.57.57-1.57.57h-.03c-1.23.37-2.52.56-3.83.58,0,0,0,0,0,0-1.06-.05-2.12-.21-3.18-.49-7.57-2.04-12.23-9.53-10.88-17.1,0,0,0-.02,0-.03.03-.13.07-.26.11-.39l19.72-73.23c1.95-7.21,9.4-11.48,16.65-9.53s11.56,9.38,9.62,16.6c-1.29,4.77-2.57,9.53-3.85,14.29-1.66,6.15-3.31,12.3-4.95,18.45-.53,2.02-1.07,4.03-1.61,6.04-.16.61-.33,1.24-.49,1.84-.07.28-.14.56-.22.83-.02.08-.05.17-.08.27l-.28,1.02c-.02.07-.03.15-.05.22v.03c-.39,1.44.18,3,1.46,3.77.91.54,1.91.62,2.78.35l.29-.1,8.5-3.05,34.17-12.25.86-.3s.03-.01.05-.02c5.82-1.85,12.38.39,15.78,5.8Z"/>
          <path class="cls-2" d="M1456.24,524.9c9.36,14.45,14.35,31.91,13.25,50.41l-1.44,24.29c-.33,5.32-.65,10.63-.95,15.94l-2.19,36.87c-1.12,18.77-8.33,35.72-19.6,49.04-5.03,5.95-10.87,11.18-17.33,15.52-10.81,7.26-23.38,12.06-36.86,13.63-2.36.28-4.74.45-7.15.53h-.03c-.46-.02-.93-.04-1.38-.07-4.49-.27-8.98-.53-13.47-.79h0c-3.95-.24-7.89-.47-11.84-.69-17.28-1.02-34.56-2.03-51.83-3.11-1.69-.1-3.38-.21-5.07-.31-.01,0-.02,0-.02,0-3.16-.69-6.16-2.3-8.56-4.81-6.42-6.71-6.18-17.36.54-23.79,2.89-2.76,6.5-4.28,10.19-4.6l4.61.27c.09,0,.17,0,.26.02,0,0,0,0,.01,0,1.35.08,2.69.17,4.05.25,5.13.3,10.26.61,15.39.92,10.81.66,21.61,1.31,32.42,1.97,7.41.45,14.81.9,22.21,1.35.94.05,1.9.09,2.86.09,2.91.02,5.88-.22,8.83-.71.75-.12,1.49-.26,2.23-.42.05,0,.1,0,.15-.03,16.08-2.91,29.27-14.75,33.88-30.46,0-.02,0-.04.02-.06.16-.42.29-.84.43-1.26,1.19-3.61,1.23-7.28,1.86-10.92.28-4.69.56-9.37.85-14.06h0s.03-.02.05-.03l3.31-55.63c0-.1.02-.2.02-.3.35-4.61.75-9.24.82-13.86.05-3.1-.05-6.19-.41-9.27-.03-.27-.07-.55-.09-.83-.46-3.43-1.3-6.77-2.48-9.95-.03-.09-.06-.19-.11-.28-3.52-9.87-10.58-18.14-19.72-23.19-.9-.51-1.83-1-2.78-1.47-.09-.05-.19-.09-.28-.13-.55-.26-1.1-.49-1.66-.73-3.79-1.9-6.7-5.25-8.07-9.27-.66-1.93-.96-4.02-.83-6.18.23-3.91,1.83-7.41,4.31-10.07,3.18-3.42,7.8-5.44,12.82-5.14,1.05.06,2.08.22,3.06.47,2.31.59,4.42,1.68,6.2,3.12,4.93,2.76,9.55,5.99,13.79,9.64,6.09,5.23,11.4,11.33,15.76,18.07Z"/>
          <path class="cls-2" d="M1773.5,1087.16c-3.68,8.31-13.4,12.07-21.71,8.39l-165.37-73.22c-.22-.1-.44-.2-.66-.32-.21-.11-.44-.23-.65-.35-.72-.41-1.4-.87-2.04-1.37-.32-.25-.62-.51-.92-.78-.11-.1-.21-.19-.3-.29-.48-.46-.92-.95-1.34-1.46-.29-.36-.57-.72-.82-1.11-.17-.24-.33-.5-.48-.74,0-.01,0-.02-.02-.03-2.12-3.55-2.88-7.87-1.93-12.06l2.81-6.34c1.41-1.92,3.22-3.45,5.27-4.53.18-.1.36-.19.54-.28.2-.1.53-.25.73-.34.25-.1.49-.21.73-.3.06-.03.13-.05.2-.07.34-.13.69-.24,1.05-.34.32-.09.64-.18.98-.26,3.35-.79,6.96-.54,10.35.96.57.25,1.14.54,1.67.86l.04.02c.43.19.82.36,1.23.54,2.39.98,4.76,2.02,7.12,3.06,1.52.68,3.04,1.36,4.55,2.05,3.2,1.45,6.39,2.9,9.59,4.31,9.53,4.21,19.09,8.43,28.63,12.64,4.79,2.11,9.58,4.23,14.38,6.35,4.75,2.1,9.49,4.2,14.24,6.3,5.2,2.29,10.4,4.59,15.6,6.89,4.34,1.92,8.68,3.83,13.03,5.75,9.54,4.22,19.08,8.44,28.63,12.65,3.68,1.63,7.36,3.26,11.04,4.88,5.14,2.28,10.29,4.55,15.43,6.83h.03c8.3,3.7,12.05,13.41,8.37,21.72Z"/>
          <path class="cls-2" d="M1725.88,903.69l-6.42,45.47c-2.17,8.03-10.04,13.37-18.49,12.18-4.33-.61-8.04-2.83-10.61-5.97-2.74-3.34-4.18-7.71-3.71-12.3l5.23-37.07s.94-6.72.94-6.76c0-.01,0-.02,0-.04.48-4.31-.02-8.52-1.3-12.4,0,0,0,0,0,0-1.35-4.09-3.59-7.82-6.52-10.93h0c-3.51-3.74-8.01-6.58-13.17-8.07-.11-.03-.21-.06-.32-.09-.1-.03-.21-.06-.32-.09-.21-.06-.42-.11-.64-.16-.26-.07-.53-.12-.8-.18-.09-.02-.19-.04-.28-.06-.21-.04-.41-.08-.62-.12-.41-.08-.82-.14-1.23-.2-13.35-1.88-25.87,5.53-31.01,17.32-.05.08-.09.15-.12.22,0,0-.01.02-.02.02-.3.62-.54,1.24-.77,1.89-.35.92-.62,1.89-.85,2.85l-.16,1.11c.02-.3.04-.61.06-.91l-6.61,46.86c-.07.29-.15.58-.25.87-.04.13-.09.26-.14.39-.44,1.22-1,2.37-1.68,3.42-.68,1.06-1.48,2.04-2.38,2.91-.68.66-1.42,1.27-2.2,1.81-3.34,2.31-7.51,3.41-11.84,2.8-4.31-.61-8.01-2.81-10.57-5.93-.93-1.12-1.71-2.36-2.31-3.69-.08-.17-.16-.34-.23-.52-.92-2.24-1.35-4.7-1.21-7.24l6.46-45.77c.04-.46.06-.93.07-1.39.13-4.62-.85-9.25-2.85-13.43-4.66-9.74-14-15.61-24.03-16.38-.15-.01-.31-.03-.47-.04-14.85-1.1-28.25,9.16-31.02,23.86,0,0,0,.02,0,.03-.13.55-.24,1.11-.33,1.67-.33,2.12-.66,4.23-.97,6.35-.53,3.53-1.03,7.05-1.55,10.57-.27,1.88-.54,3.77-.82,5.65-.53,3.78-1.05,7.55-1.58,11.33-1.26,8.94-9.54,15.18-18.48,13.91-8.95-1.26-15.17-9.54-13.91-18.48l5.26-37.3c1.64-6.65,4.27-13.1,7.84-18.93,1.33-2.18,2.8-4.26,4.39-6.24.49-.61.99-1.21,1.5-1.79.04-.05.09-.11.14-.16.13-.14.25-.28.38-.42.25-.27.51-.55.76-.82.06-.07.14-.14.2-.21.69-.72,1.39-1.43,2.11-2.12.08-.07.16-.15.23-.22.24-.23.48-.45.73-.67,1.73-1.55,3.53-2.94,5.41-4.22,2.19-1.5,4.48-2.83,6.85-4.09,1.57-.83,3.18-1.63,4.81-2.41,1.31-.62,2.62-1.18,3.94-1.68.05-.02.1-.04.15-.06,4.11-1.56,8.29-2.58,12.53-3.13,2.13-.28,4.27-.44,6.43-.49.72-.01,1.44-.02,2.17-.01,1.45,0,2.9.07,4.37.17,1.46.1,2.93.25,4.41.44.74.09,1.47.19,2.19.31,2.9.46,5.72,1.07,8.44,1.85,1.99.57,3.92,1.23,5.81,1.98.02.01.04.02.05.02,4.18,1.81,8.1,4.04,11.73,6.64,2.59,1.85,5.02,3.9,7.28,6.11,0,0,.01.01.02.02,2.67,2.91,5.06,6.08,7.12,9.44.17-.15.33-.29.49-.45.65-.58,1.32-1.15,1.99-1.71,0,0,0,0,.01-.01.31-.22.62-.46.94-.68h0c.13-.06.26-.11.4-.19.76-.57,1.54-1.11,2.31-1.64,0,0,.02-.02.02-.02,2.67-1.7,5.48-3.21,8.4-4.49,1.31-.58,2.64-1.11,3.99-1.6,2.11-.76,4.27-1.42,6.48-1.96.02,0,.04,0,.05,0,2.42-.54,4.89-.93,7.43-1.18,7.05-.7,13.81-.48,20.23.72h.03c3.64.75,7.14,1.81,10.49,3.13,4.89,1.93,9.45,4.45,13.61,7.45,4.04,2.92,7.71,6.29,10.92,10.04,6.87,8,11.71,17.68,13.86,28.19,0,.01,0,.01,0,.02,1.03,5.06,1.45,10.3,1.17,15.64-.03.49-.06.97-.09,1.45Z"/>
          <path class="cls-2" d="M1714.54,776.14c4.02,6.42,2.08,14.89-4.34,18.92-.27.17-.55.33-.83.47l-3.78,1.36-9.26,3.32-48.3,17.32h0s-7.69,2.76-7.69,2.76l-4.71,1.69h-.02s-1.57.57-1.57.57h-.03c-1.23.37-2.52.56-3.83.58,0,0,0,0,0,0-1.06-.05-2.12-.21-3.18-.49-7.57-2.04-12.23-9.53-10.88-17.1,0,0,0-.02,0-.03.03-.13.07-.26.11-.39l19.72-73.23c1.95-7.21,9.4-11.48,16.65-9.53,7.25,1.95,11.56,9.39,9.62,16.6-1.29,4.77-2.57,9.53-3.85,14.29-1.66,6.15-3.31,12.3-4.95,18.45-.53,2.02-1.07,4.03-1.61,6.05-.16.61-.33,1.24-.49,1.84-.07.28-.14.56-.22.83-.02.08-.05.17-.08.27l-.28,1.02c-.02.07-.03.15-.05.22v.03c-.39,1.44.18,3,1.46,3.77.91.55,1.91.62,2.78.35l.29-.1,8.5-3.05,34.17-12.25.86-.3s.03-.01.05-.02c5.82-1.85,12.38.39,15.78,5.8Z"/>
          <path class="cls-2" d="M1621.47,654.84c14.45-9.36,31.91-14.35,50.41-13.25l24.29,1.44c5.32.33,10.63.65,15.94.95l36.87,2.19c18.77,1.12,35.72,8.33,49.04,19.6,5.95,5.03,11.18,10.87,15.52,17.33,7.26,10.81,12.05,23.38,13.63,36.86.28,2.36.45,4.74.53,7.15v.03c-.02.46-.04.93-.07,1.38-.27,4.49-.53,8.98-.79,13.47h0c-.24,3.95-.47,7.9-.69,11.85-1.02,17.28-2.03,34.56-3.11,51.83-.1,1.69-.21,3.38-.31,5.07,0,.01,0,.02,0,.02-.69,3.16-2.3,6.16-4.81,8.56-6.71,6.42-17.36,6.18-23.79-.54-2.76-2.89-4.28-6.5-4.6-10.19l.27-4.61c0-.09,0-.17.02-.26,0,0,0,0,0,0,.08-1.35.17-2.69.25-4.05.3-5.13.61-10.26.92-15.39.66-10.81,1.31-21.61,1.97-32.42.45-7.4.9-14.8,1.35-22.21.05-.94.09-1.9.09-2.86.02-2.91-.22-5.88-.71-8.83-.12-.75-.25-1.49-.42-2.23,0-.05,0-.1-.03-.15-2.91-16.08-14.75-29.27-30.46-33.88-.02,0-.04,0-.06-.02-.42-.16-.84-.29-1.26-.43-3.61-1.19-7.28-1.23-10.92-1.86-4.69-.28-9.37-.56-14.06-.85h0s-.02-.02-.03-.04l-55.64-3.31c-.1,0-.2-.02-.3-.02-4.61-.35-9.24-.75-13.86-.82-3.1-.05-6.19.05-9.27.41-.27.03-.55.07-.83.09-3.43.46-6.77,1.3-9.95,2.48-.09.03-.19.06-.28.11-9.87,3.52-18.14,10.58-23.19,19.72-.51.9-1,1.83-1.46,2.78-.05.09-.09.19-.13.29-.26.55-.49,1.1-.73,1.66-1.9,3.79-5.25,6.7-9.27,8.07-1.93.66-4.02.96-6.18.83-3.91-.23-7.41-1.83-10.07-4.31-3.42-3.18-5.44-7.8-5.14-12.82.06-1.06.22-2.08.47-3.06.59-2.31,1.68-4.42,3.12-6.2,2.76-4.93,5.99-9.55,9.64-13.79,5.23-6.09,11.33-11.41,18.07-15.76Z"/>
          <path class="cls-2" d="M1832.67,51.41c-7.6,4.98-9.72,15.19-4.74,22.79l99.14,151.26c.14.21.27.4.42.6.15.19.3.39.45.59.52.64,1.09,1.24,1.68,1.79.3.28.61.53.92.78.11.09.22.17.33.25.54.39,1.09.75,1.66,1.08.4.23.81.44,1.23.63.27.13.54.24.81.35.01,0,.02,0,.03.01,3.85,1.52,8.23,1.56,12.21-.06l5.79-3.8c1.66-1.7,2.88-3.74,3.61-5.94.07-.19.13-.38.19-.58.07-.21.17-.56.22-.78.06-.26.12-.52.18-.77.02-.07.03-.14.03-.21.07-.36.12-.72.16-1.09.04-.33.07-.66.1-1.01.24-3.43-.59-6.95-2.63-10.06-.34-.52-.72-1.03-1.12-1.5l-.03-.04c-.26-.39-.49-.75-.73-1.13-1.36-2.2-2.77-4.37-4.18-6.52-.92-1.39-1.83-2.77-2.76-4.15-1.95-2.92-3.9-5.83-5.81-8.77-5.71-8.72-11.42-17.46-17.13-26.19-2.86-4.38-5.73-8.77-8.6-13.15-2.84-4.34-5.69-8.69-8.53-13.03-3.11-4.76-6.22-9.52-9.33-14.27-2.6-3.97-5.2-7.95-7.79-11.92-5.72-8.73-11.43-17.45-17.14-26.19-2.21-3.36-4.41-6.73-6.61-10.1-3.08-4.7-6.16-9.41-9.25-14.11l-.02-.03c-4.99-7.59-15.18-9.71-22.78-4.73Z"/>
          <path class="cls-2" d="M1236.72,48.82c.9-.28,1.79-.6,2.64-.97-.89.3-1.77.62-2.64.97Z"/>
          <path class="cls-2" d="M1664.29,216.87l-14.92,43.44c-1.71,8.14,2.88,16.47,10.95,19.24,4.14,1.42,8.45,1.13,12.16-.5,3.95-1.73,7.22-4.98,8.89-9.28l12.16-35.4s2.21-6.41,2.23-6.45c0-.01,0-.02.02-.04,1.53-4.06,3.88-7.58,6.79-10.46,0,0,0,0,0,0,3.06-3.03,6.75-5.34,10.77-6.78h0c4.82-1.74,10.12-2.23,15.4-1.22.11.02.22.04.32.07.11.02.22.04.32.06.22.04.43.09.64.15.26.06.53.13.79.2.09.02.19.05.28.07.2.06.41.11.61.17.4.12.79.24,1.19.38,12.76,4.38,20.54,16.66,19.78,29.5,0,.09,0,.17.01.25,0,0,0,.02,0,.03-.02.69-.08,1.35-.17,2.03-.11.98-.3,1.96-.54,2.93l-.36,1.06c.12-.28.24-.56.36-.84l-15.37,44.76c-.07.29-.12.59-.18.88-.02.14-.04.27-.06.41-.16,1.29-.18,2.56-.05,3.82.13,1.25.4,2.49.8,3.67.31.9.69,1.78,1.14,2.61,1.93,3.57,5.15,6.45,9.28,7.87,4.12,1.42,8.41,1.13,12.11-.48,1.33-.58,2.59-1.33,3.73-2.23.15-.12.3-.24.44-.36,1.84-1.58,3.34-3.58,4.36-5.9l15.01-43.72c.18-.43.37-.86.57-1.27,1.98-4.17,4.95-7.86,8.63-10.67,8.57-6.57,19.56-7.56,28.84-3.7.14.06.29.11.43.18,13.73,5.75,21.02,20.98,16.81,35.34,0,.01,0,.02,0,.04-.14.55-.29,1.1-.46,1.64-.66,2.03-1.33,4.07-2.02,6.09-1.13,3.38-2.28,6.75-3.42,10.12-.62,1.8-1.23,3.6-1.83,5.41-1.24,3.6-2.49,7.21-3.73,10.81-2.93,8.54,1.61,17.85,10.16,20.78,8.55,2.94,17.85-1.61,20.78-10.16l12.23-35.63c1.55-6.67,2.14-13.61,1.6-20.43-.2-2.55-.56-5.07-1.08-7.56-.16-.76-.33-1.52-.53-2.28-.02-.07-.03-.14-.05-.2-.05-.18-.09-.36-.14-.54-.1-.36-.2-.72-.3-1.07-.03-.09-.06-.19-.08-.28-.29-.96-.59-1.9-.92-2.85-.04-.1-.07-.2-.11-.3-.11-.31-.22-.62-.35-.93-.84-2.17-1.81-4.23-2.91-6.22-1.28-2.33-2.71-4.56-4.25-6.75-1.02-1.46-2.09-2.9-3.2-4.33-.88-1.15-1.8-2.24-2.75-3.29-.04-.04-.07-.08-.11-.12-2.96-3.25-6.21-6.06-9.75-8.48-1.77-1.22-3.6-2.33-5.5-3.36-.64-.34-1.28-.67-1.93-.99-1.29-.65-2.62-1.26-3.97-1.83-1.35-.57-2.73-1.11-4.13-1.61-.7-.26-1.4-.5-2.09-.72-2.8-.91-5.58-1.64-8.36-2.18-2.03-.39-4.05-.69-6.07-.87-.02,0-.04,0-.06,0-4.54-.29-9.05-.08-13.46.6-3.15.48-6.24,1.2-9.26,2.14,0,0-.02,0-.03,0-3.7,1.38-7.27,3.12-10.63,5.18-.08-.21-.16-.41-.24-.62-.31-.82-.65-1.63-1-2.43,0,0,0,0,0-.02-.18-.34-.34-.69-.53-1.03h0c-.09-.11-.18-.22-.27-.35-.42-.85-.86-1.69-1.32-2.51,0-.01,0-.02-.01-.03-1.61-2.73-3.43-5.35-5.45-7.81-.9-1.11-1.85-2.19-2.83-3.24-1.54-1.64-3.17-3.2-4.89-4.68-.02,0-.03-.02-.04-.03-1.91-1.58-3.94-3.04-6.08-4.42-5.96-3.82-12.09-6.69-18.35-8.54h-.03c-3.58-.99-7.18-1.64-10.77-1.98-5.24-.5-10.44-.32-15.51.47-4.92.77-9.72,2.11-14.28,3.99-9.75,4.01-18.46,10.45-25.15,18.84,0,.01,0,.01,0,.02-3.21,4.04-5.96,8.52-8.14,13.41-.2.45-.39.89-.58,1.34Z"/>
          <path class="cls-2" d="M1802.69,456.56c-4.02,6.42-2.08,14.89,4.34,18.92.27.17.55.33.83.47l3.78,1.36,9.26,3.32,48.3,17.32h0s7.69,2.77,7.69,2.77l4.71,1.68h.01s1.57.57,1.57.57h.03c1.23.37,2.52.56,3.83.58,0,0,0,0,0,0,1.06-.05,2.12-.21,3.18-.49,7.57-2.04,12.23-9.53,10.88-17.1,0,0,0-.02,0-.03-.03-.13-.07-.26-.11-.39l-19.72-73.23c-1.94-7.21-9.4-11.48-16.65-9.53-7.25,1.95-11.56,9.38-9.62,16.6,1.29,4.77,2.57,9.53,3.85,14.29,1.66,6.15,3.31,12.3,4.95,18.45.53,2.02,1.07,4.03,1.61,6.04.16.61.33,1.24.49,1.84.07.28.14.56.22.83.02.08.05.17.08.27l.28,1.02c.02.07.03.15.05.22v.03c.39,1.44-.18,3-1.46,3.77-.91.55-1.91.62-2.78.35l-.29-.1-8.5-3.05-34.17-12.25-.86-.3s-.03-.01-.05-.02c-5.82-1.85-12.38.39-15.78,5.8Z"/>
          <path class="cls-2" d="M1561.11,347.84c-9.36,14.45-14.35,31.91-13.25,50.41l1.44,24.29c.33,5.32.65,10.63.95,15.94l2.19,36.87c1.12,18.77,8.33,35.72,19.6,49.04,5.03,5.95,10.87,11.18,17.33,15.52,10.81,7.26,23.39,12.06,36.86,13.63,2.36.28,4.74.45,7.15.53h.03c.46-.02.93-.04,1.38-.07,4.49-.27,8.98-.53,13.47-.79h0c3.95-.24,7.89-.47,11.84-.69,17.28-1.02,34.56-2.03,51.83-3.11,1.69-.1,3.38-.21,5.07-.31.01,0,.02,0,.02,0,3.16-.69,6.16-2.3,8.56-4.81,6.42-6.71,6.18-17.36-.54-23.79-2.89-2.76-6.5-4.28-10.19-4.6l-4.61.27c-.09,0-.17,0-.26.02,0,0,0,0-.01,0-1.35.08-2.69.17-4.05.25-5.13.3-10.26.61-15.39.92-10.81.66-21.61,1.31-32.42,1.97-7.41.45-14.81.9-22.21,1.35-.94.05-1.9.09-2.86.09-2.91.02-5.88-.22-8.83-.71-.75-.12-1.49-.26-2.23-.42-.05,0-.1,0-.15-.03-16.08-2.91-29.27-14.75-33.88-30.46,0-.02,0-.04-.02-.06-.16-.42-.29-.84-.43-1.26-1.19-3.61-1.23-7.28-1.86-10.92-.28-4.69-.56-9.37-.85-14.06h0s-.03-.02-.05-.03l-3.31-55.64c0-.1-.02-.2-.02-.3-.35-4.61-.75-9.24-.82-13.86-.05-3.1.05-6.19.41-9.27.03-.27.07-.55.09-.83.46-3.43,1.3-6.77,2.48-9.95.03-.09.06-.19.11-.28,3.52-9.87,10.58-18.14,19.72-23.19.9-.51,1.83-1,2.78-1.47.09-.05.19-.09.28-.13.55-.26,1.1-.49,1.66-.73,3.79-1.9,6.7-5.25,8.07-9.27.66-1.93.96-4.02.83-6.18-.23-3.91-1.83-7.41-4.31-10.07-3.18-3.42-7.8-5.44-12.82-5.14-1.06.06-2.08.22-3.06.47-2.31.59-4.42,1.68-6.2,3.12-4.93,2.76-9.55,5.99-13.79,9.64-6.09,5.23-11.41,11.33-15.76,18.07Z"/>
          <path class="cls-2" d="M1139.05,365.38c3.68,8.31,13.4,12.07,21.71,8.39l165.37-73.22c.22-.1.44-.2.66-.32.21-.11.44-.23.65-.35.72-.41,1.4-.87,2.04-1.37.32-.25.62-.52.92-.78.11-.1.21-.19.3-.29.48-.46.92-.95,1.34-1.46.29-.36.57-.73.82-1.11.17-.24.33-.49.48-.74,0-.01,0-.02.02-.03,2.12-3.55,2.88-7.87,1.93-12.06l-2.81-6.34c-1.41-1.91-3.22-3.45-5.27-4.53-.18-.1-.36-.19-.54-.28-.2-.1-.53-.26-.73-.34-.25-.1-.49-.21-.73-.3-.06-.03-.13-.05-.2-.07-.34-.13-.69-.24-1.05-.34-.32-.09-.64-.18-.98-.26-3.35-.79-6.96-.54-10.35.96-.57.25-1.14.54-1.67.86l-.04.02c-.43.19-.82.36-1.23.54-2.39.98-4.76,2.02-7.12,3.06-1.52.68-3.03,1.36-4.55,2.05-3.2,1.45-6.39,2.9-9.59,4.31-9.53,4.21-19.09,8.43-28.63,12.64-4.79,2.11-9.58,4.23-14.38,6.35-4.75,2.1-9.49,4.2-14.24,6.3-5.2,2.29-10.4,4.59-15.6,6.89-4.34,1.91-8.68,3.83-13.03,5.75-9.54,4.22-19.08,8.44-28.63,12.65-3.68,1.63-7.36,3.26-11.04,4.88-5.14,2.27-10.29,4.55-15.43,6.83h-.03c-8.3,3.7-12.05,13.41-8.37,21.72Z"/>
          <path class="cls-2" d="M1134.03,481.99l6.42,45.47c2.17,8.03,10.04,13.37,18.49,12.18,4.33-.61,8.04-2.83,10.61-5.97,2.74-3.33,4.18-7.71,3.71-12.3l-5.23-37.07s-.94-6.72-.94-6.76c0-.01,0-.02,0-.04-.48-4.31.02-8.52,1.3-12.4,0,0,0,0,0,0,1.35-4.09,3.59-7.82,6.52-10.93h0c3.51-3.74,8.01-6.58,13.17-8.07.11-.03.21-.06.32-.09.1-.03.21-.06.32-.09.21-.06.42-.11.64-.16.26-.07.53-.12.8-.18.09-.02.19-.04.28-.06.21-.04.41-.08.62-.12.41-.08.82-.14,1.23-.2,13.35-1.88,25.87,5.53,31.01,17.32.05.08.09.15.12.22,0,0,.01.02.02.02.3.62.54,1.24.77,1.89.35.92.62,1.89.85,2.86l.16,1.11c-.02-.3-.04-.61-.06-.91l6.61,46.86c.07.29.15.58.25.87.04.13.09.26.14.4.44,1.22,1,2.36,1.68,3.42.68,1.06,1.48,2.04,2.38,2.91.68.66,1.42,1.27,2.2,1.81,3.34,2.31,7.51,3.41,11.84,2.8,4.31-.61,8.01-2.81,10.57-5.92.93-1.12,1.71-2.36,2.31-3.69.08-.17.16-.35.23-.52.92-2.24,1.36-4.7,1.21-7.24l-6.46-45.77c-.04-.46-.06-.93-.07-1.39-.13-4.62.85-9.25,2.85-13.43,4.66-9.74,14-15.61,24.03-16.38.15-.01.31-.03.47-.04,14.85-1.1,28.25,9.16,31.02,23.86,0,.01,0,.02,0,.03.13.55.24,1.11.33,1.67.33,2.11.66,4.23.97,6.35.53,3.52,1.03,7.05,1.55,10.57.26,1.88.54,3.77.82,5.65.53,3.78,1.05,7.55,1.58,11.33,1.26,8.95,9.54,15.17,18.48,13.91,8.95-1.26,15.17-9.54,13.91-18.48l-5.26-37.3c-1.64-6.65-4.27-13.1-7.84-18.93-1.33-2.18-2.8-4.27-4.39-6.24-.49-.61-.99-1.21-1.5-1.79-.04-.05-.09-.11-.13-.16-.13-.14-.25-.28-.38-.42-.25-.27-.51-.55-.76-.82-.06-.07-.14-.14-.2-.21-.69-.72-1.39-1.43-2.11-2.12-.08-.07-.16-.15-.23-.22-.24-.23-.48-.45-.73-.67-1.73-1.55-3.53-2.94-5.41-4.22-2.19-1.5-4.49-2.83-6.85-4.09-1.57-.83-3.18-1.63-4.81-2.41-1.31-.62-2.62-1.18-3.94-1.68-.05-.02-.1-.04-.15-.06-4.11-1.56-8.29-2.58-12.53-3.13-2.13-.28-4.27-.44-6.43-.49-.72-.01-1.44-.02-2.17-.01-1.45,0-2.9.07-4.37.17-1.46.1-2.93.25-4.41.44-.74.09-1.47.19-2.19.31-2.9.46-5.72,1.07-8.44,1.85-1.99.57-3.92,1.23-5.81,1.98-.02.01-.04.02-.06.02-4.18,1.81-8.1,4.04-11.73,6.64-2.59,1.85-5.02,3.9-7.28,6.11,0,0-.01.01-.02.02-2.67,2.91-5.06,6.08-7.12,9.44-.17-.15-.33-.29-.49-.45-.65-.58-1.32-1.15-1.99-1.71,0,0,0,0-.01-.01-.31-.23-.62-.46-.94-.68h0c-.13-.06-.26-.11-.4-.19-.76-.57-1.54-1.11-2.31-1.64,0,0-.02-.02-.02-.02-2.67-1.7-5.48-3.21-8.4-4.49-1.31-.58-2.64-1.11-3.99-1.61-2.11-.76-4.27-1.42-6.48-1.96-.02,0-.04,0-.05,0-2.41-.54-4.89-.93-7.43-1.18-7.05-.7-13.81-.48-20.23.72h-.03c-3.64.75-7.14,1.81-10.49,3.13-4.89,1.93-9.45,4.45-13.61,7.45-4.04,2.92-7.71,6.29-10.92,10.03-6.87,8-11.71,17.68-13.86,28.19,0,.01,0,.02,0,.02-1.03,5.06-1.45,10.3-1.17,15.64.03.49.06.97.09,1.45Z"/>
          <path class="cls-2" d="M1380.46,309.77c-4.02,6.42-2.08,14.89,4.34,18.92.27.17.55.33.83.47l3.78,1.36,9.26,3.32,48.3,17.32h0s7.69,2.77,7.69,2.77l4.71,1.68h.02s1.57.57,1.57.57h.03c1.23.37,2.52.56,3.83.58,0,0,0,0,0,0,1.06-.05,2.12-.21,3.18-.49,7.57-2.04,12.23-9.53,10.88-17.1,0,0,0-.02,0-.03-.03-.13-.07-.26-.11-.39l-19.72-73.23c-1.95-7.21-9.4-11.48-16.65-9.53-7.25,1.95-11.56,9.38-9.62,16.6,1.29,4.77,2.57,9.53,3.85,14.29,1.66,6.15,3.31,12.3,4.95,18.45.53,2.02,1.07,4.03,1.61,6.04.16.61.33,1.24.49,1.84.07.28.14.56.22.83.02.08.05.17.08.27l.28,1.02c.02.07.03.15.05.22v.03c.39,1.44-.18,3-1.46,3.77-.91.54-1.91.62-2.78.35l-.29-.1-8.5-3.05-34.17-12.25-.86-.3s-.03-.01-.05-.02c-5.82-1.85-12.38.39-15.78,5.8Z"/>
          <path class="cls-2" d="M1419.52,39.64c-14.45-9.36-31.91-14.35-50.41-13.25l-24.29,1.44c-5.32.33-10.63.65-15.94.95l-36.87,2.19c-18.77,1.12-35.72,8.33-49.04,19.6-5.95,5.03-11.18,10.87-15.52,17.33-7.26,10.81-12.05,23.38-13.63,36.86-.28,2.36-.45,4.74-.53,7.15v.03c.02.46.04.93.07,1.38.27,4.49.53,8.98.79,13.47h0c.24,3.95.47,7.9.69,11.85,1.02,17.28,2.03,34.56,3.11,51.83.1,1.69.21,3.38.31,5.07,0,.01,0,.02,0,.02.69,3.16,2.3,6.16,4.81,8.56,6.71,6.42,17.36,6.18,23.79-.54,2.76-2.89,4.28-6.5,4.6-10.19l-.27-4.61c0-.09,0-.17-.02-.26,0,0,0,0,0-.01-.08-1.35-.17-2.69-.25-4.05-.3-5.13-.61-10.26-.92-15.39-.66-10.81-1.31-21.61-1.97-32.42-.45-7.41-.9-14.81-1.35-22.21-.06-.94-.09-1.9-.09-2.86-.02-2.91.22-5.88.71-8.83.12-.75.26-1.49.42-2.23,0-.05,0-.1.03-.15,2.91-16.08,14.75-29.27,30.46-33.88.02,0,.04,0,.06-.02.42-.16.84-.29,1.26-.43,3.61-1.19,7.28-1.23,10.92-1.86,4.69-.28,9.37-.56,14.06-.85h0s.02-.03.03-.04l55.64-3.31c.1,0,.2-.02.3-.02,4.61-.35,9.24-.75,13.86-.82,3.1-.05,6.19.05,9.27.41.27.03.55.07.83.09,3.43.46,6.77,1.3,9.95,2.48.09.03.19.06.28.11,9.87,3.52,18.14,10.58,23.19,19.72.51.9,1,1.83,1.46,2.78.05.09.09.19.13.28.26.55.49,1.1.73,1.66,1.9,3.79,5.25,6.7,9.27,8.07,1.93.66,4.02.96,6.18.83,3.91-.23,7.41-1.83,10.07-4.31,3.42-3.18,5.44-7.8,5.14-12.82-.06-1.05-.22-2.08-.47-3.06-.59-2.31-1.68-4.42-3.12-6.2-2.76-4.93-5.99-9.55-9.64-13.79-5.23-6.09-11.33-11.41-18.07-15.76Z"/>
        </g>
      </g>
    </g>
  </g>
</svg>